<svg width="377" height="96" viewBox="0 0 377 96" fill="none" xmlns="http://www.w3.org/2000/svg">
<path d="M136.489 21.014H142.288V44.973H136.489V21.014ZM174.96 40.544V44.705C173.585 45.107 172.513 45.244 171.171 45.244C167.149 45.244 165.337 43.631 165.337 40.041V31.717H163.057V27.791H165.337V23.53H170.869V27.791H174.591V31.717H170.835V38.9C170.835 40.243 171.372 40.78 172.848 40.78C173.651 40.779 174.256 40.713 174.96 40.544ZM181.41 34.638H188.149C188.149 32.66 186.909 31.317 184.929 31.317C183.054 31.316 181.813 32.455 181.41 34.638ZM193.279 39.37C192.508 43.097 189.425 45.378 184.998 45.378C182.315 45.378 180.137 44.538 178.459 42.893C176.75 41.251 175.911 39.103 175.911 36.382C175.911 33.664 176.75 31.482 178.427 29.84C180.104 28.195 182.282 27.39 184.93 27.39C187.514 27.39 189.557 28.196 191.066 29.805C192.576 31.416 193.345 33.532 193.345 36.116V37.624H181.31C181.611 40.141 182.886 41.417 184.998 41.417C186.573 41.417 187.68 40.714 188.115 39.371L193.279 39.37ZM188.889 64.562H195.633C195.633 62.583 194.393 61.241 192.411 61.241C190.532 61.241 189.291 62.38 188.889 64.562ZM200.77 69.294C199.998 73.022 196.911 75.302 192.481 75.302C189.794 75.302 187.614 74.462 185.936 72.819C184.226 71.175 183.384 69.028 183.384 66.307C183.384 63.589 184.226 61.409 185.902 59.766C187.582 58.12 189.761 57.317 192.413 57.317C194.998 57.317 197.043 58.121 198.558 59.731C200.066 61.34 200.836 63.457 200.836 66.041V67.549H188.788C189.09 70.068 190.367 71.342 192.481 71.342C194.057 71.342 195.165 70.64 195.6 69.296L200.77 69.294ZM245.283 64.562H252.027C252.027 62.583 250.786 61.241 248.806 61.241C246.928 61.241 245.688 62.38 245.283 64.562ZM257.163 69.294C256.392 73.022 253.305 75.302 248.873 75.302C246.189 75.302 244.007 74.462 242.328 72.819C240.618 71.175 239.777 69.028 239.777 66.307C239.777 63.589 240.618 61.409 242.296 59.766C243.975 58.12 246.154 57.317 248.807 57.317C251.393 57.317 253.438 58.121 254.95 59.731C256.461 61.34 257.231 63.457 257.231 66.041V67.549H245.182C245.485 70.068 246.761 71.342 248.873 71.342C250.451 71.342 251.559 70.64 251.994 69.296L257.163 69.294ZM207.501 27.691V32.859C206.964 32.757 206.395 32.725 205.691 32.725C202.908 32.725 201.198 34.469 201.198 37.456V44.973H195.597V27.791H201.13V31.449C201.966 28.898 203.845 27.523 206.258 27.523C206.83 27.523 207.232 27.556 207.501 27.691ZM234.988 41.785C237.033 41.785 238.508 40.477 238.508 38.463V37.623L235.425 37.992C233.548 38.227 232.844 38.764 232.844 39.939C232.844 41.113 233.646 41.785 234.988 41.785ZM238.945 44.974C238.808 43.767 238.777 43.128 238.777 42.457C237.939 44.337 235.961 45.378 233.277 45.378C229.625 45.378 227.31 43.399 227.31 40.309C227.31 37.222 229.388 35.476 233.681 35.039L238.506 34.572V33.865C238.506 32.289 237.568 31.384 235.925 31.384C234.45 31.384 233.511 32.22 233.41 33.563H228.046C228.415 29.671 231.435 27.39 236.127 27.39C241.323 27.39 243.972 29.805 243.972 34.505V40.072C243.972 42.123 244.039 43.497 244.275 44.973L238.945 44.974ZM257.023 40.544V44.705C255.648 45.107 254.576 45.244 253.234 45.244C249.211 45.244 247.4 43.631 247.4 40.041V31.717H245.12V27.791H247.4V23.53H252.931V27.791H256.654V31.717H252.898V38.9C252.898 40.243 253.435 40.78 254.911 40.78C255.622 40.7901 256.331 40.7108 257.023 40.544ZM264.945 44.974H259.345V27.791H264.945V44.974ZM265.045 25.408H259.245V20.542H265.045V25.408ZM272.9 36.383C272.9 39.571 274.14 41.35 276.421 41.35C278.666 41.35 279.908 39.606 279.908 36.383C279.908 33.162 278.666 31.415 276.421 31.415C274.143 31.415 272.9 33.194 272.9 36.383ZM283.059 29.84C284.703 31.482 285.539 33.664 285.539 36.383C285.539 39.103 284.701 41.282 283.059 42.927C281.383 44.573 279.17 45.377 276.421 45.377C273.639 45.377 271.426 44.572 269.781 42.927C268.105 41.282 267.265 39.103 267.265 36.383C267.265 33.664 268.105 31.482 269.781 29.84C271.426 28.195 273.636 27.389 276.421 27.389C279.17 27.389 281.383 28.195 283.059 29.84ZM313.553 41.785C315.596 41.785 317.073 40.477 317.073 38.463V37.623L313.989 37.992C312.111 38.227 311.407 38.764 311.407 39.939C311.405 41.113 312.211 41.785 313.553 41.785ZM317.509 44.974C317.374 43.767 317.341 43.128 317.341 42.457C316.503 44.337 314.524 45.378 311.842 45.378C308.19 45.378 305.874 43.399 305.874 40.309C305.874 37.222 307.952 35.476 312.243 35.039L317.071 34.572V33.865C317.071 32.289 316.133 31.384 314.489 31.384C313.014 31.384 312.075 32.22 311.973 33.563H306.61C306.98 29.671 309.998 27.39 314.691 27.39C319.886 27.39 322.537 29.805 322.537 34.505V40.072C322.537 42.123 322.602 43.497 322.839 44.973L317.509 44.974ZM325.36 20.542H331.191V44.974H325.36V20.542ZM158.637 72.816C156.936 71.174 156.084 69.025 156.084 66.306C156.084 63.588 156.936 61.406 158.637 59.763C160.306 58.118 162.554 57.314 165.312 57.314C169.84 57.314 172.906 59.832 173.416 63.958H168.036C167.799 62.35 166.776 61.375 165.243 61.375C163.064 61.375 161.805 63.221 161.805 66.307C161.805 69.397 163.065 71.207 165.243 71.207C166.776 71.207 167.799 70.232 168.036 68.624H173.416C172.906 72.751 169.841 75.302 165.312 75.302C162.554 75.302 160.306 74.462 158.637 72.816ZM223.939 72.816C222.284 71.174 221.453 69.025 221.453 66.306C221.453 63.588 222.284 61.406 223.939 59.763C225.564 58.118 227.751 57.314 230.437 57.314C234.845 57.314 237.83 59.832 238.326 63.958H233.088C232.859 62.35 231.863 61.375 230.372 61.375C228.25 61.375 227.023 63.221 227.023 66.307C227.023 69.397 228.25 71.207 230.372 71.207C231.863 71.207 232.857 70.232 233.088 68.624H238.326C237.83 72.751 234.846 75.302 230.437 75.302C227.752 75.302 225.564 74.462 223.939 72.816ZM292.598 66.307C292.598 69.495 293.817 71.274 296.053 71.274C298.257 71.274 299.475 69.531 299.475 66.307C299.475 63.087 298.257 61.34 296.053 61.34C293.816 61.34 292.598 63.118 292.598 66.307ZM302.567 59.766C304.178 61.408 305.003 63.59 305.003 66.307C305.003 69.028 304.18 71.207 302.567 72.852C300.921 74.498 298.752 75.302 296.051 75.302C293.32 75.302 291.148 74.497 289.534 72.852C287.889 71.207 287.065 69.028 287.065 66.307C287.065 63.59 287.889 61.408 289.534 59.766C291.147 58.12 293.319 57.315 296.051 57.315C298.752 57.314 300.923 58.119 302.567 59.766ZM346.036 72.816C344.379 71.174 343.55 69.025 343.55 66.306C343.55 63.588 344.379 61.406 346.036 59.763C347.661 58.118 349.848 57.314 352.534 57.314C356.943 57.314 359.926 59.832 360.423 63.958H355.185C354.956 62.35 353.96 61.375 352.468 61.375C350.347 61.375 349.12 63.221 349.12 66.307C349.12 69.397 350.347 71.207 352.468 71.207C353.96 71.207 354.955 70.232 355.185 68.624H360.423C359.926 72.751 356.944 75.302 352.534 75.302C349.848 75.302 347.661 74.462 346.036 72.816ZM368.042 74.898H362.504V57.715H368.042V74.898ZM368.14 55.332H362.408V50.466H368.14V55.332ZM181.101 74.898H175.566V57.715H181.101V74.898ZM181.199 55.332H175.465V50.466H181.199V55.332ZM370.791 50.467H376.327V74.899H370.791V50.467ZM145.296 27.857H150.829V30.507C151.733 28.63 153.02 27.456 155.434 27.456C159.422 27.456 161.573 29.905 161.573 34.032V45.04H155.94V35.377C155.94 33.15 155.461 31.783 153.551 31.783C151.572 31.783 150.895 33.418 150.895 35.845V45.04H145.295L145.296 27.857ZM133.568 67.516H139.172C139.406 69.832 141.32 71.141 144.442 71.141C147.026 71.141 148.772 69.999 148.772 68.219C148.772 66.71 147.83 66.005 145.179 65.571L140.95 64.8C136.519 63.994 134.304 61.745 134.304 58.021C134.304 55.808 135.212 53.996 136.991 52.62C138.77 51.243 141.085 50.538 143.871 50.538C149.912 50.538 153.536 53.189 154.039 57.887H148.569C148.401 55.874 146.657 54.7 143.938 54.7C141.553 54.7 139.978 55.841 139.978 57.586C139.978 58.961 140.616 59.6 143.435 60.136L147.997 61.009C152.329 61.78 154.476 64.03 154.476 67.821C154.476 70.071 153.57 71.847 151.723 73.225C149.878 74.6 147.528 75.304 144.642 75.304C138.098 75.301 134.072 72.482 133.568 67.516ZM269.534 62.919C269.534 67.984 271.648 70.839 275.373 70.839C278.023 70.839 279.636 69.463 280.141 66.879H285.778C284.737 72.281 281.048 75.302 275.375 75.302C271.853 75.302 268.999 74.16 266.851 71.88C264.704 69.63 263.63 66.645 263.63 62.919C263.63 59.227 264.702 56.239 266.851 53.958C268.999 51.675 271.853 50.534 275.375 50.534C281.114 50.534 284.737 53.555 285.778 58.958H280.141C279.636 56.374 278.026 54.998 275.373 54.998C271.648 54.998 269.534 57.85 269.534 62.919ZM335.566 57.314C333.179 57.314 331.91 58.488 331.014 60.365V57.715H325.544V74.899H331.08V65.091C331.08 62.862 331.985 61.643 333.623 61.643C335.261 61.643 336.063 62.723 336.063 64.85V74.899H341.631V63.893C341.635 59.766 339.512 57.314 335.566 57.314ZM213.305 57.314C210.919 57.314 209.651 58.488 208.754 60.365V57.715H203.284V74.899H208.82V65.091C208.82 62.862 209.726 61.643 211.363 61.643C213.001 61.643 213.802 62.723 213.802 64.85V74.899H219.371V63.893C219.373 59.766 217.25 57.314 213.305 57.314ZM219.409 27.39C217.023 27.39 215.755 28.565 214.861 30.442V27.792H209.396V44.975H214.927V35.167C214.927 32.937 215.831 31.718 217.467 31.718C219.105 31.718 219.905 32.799 219.905 34.925V44.975H225.467V33.968C225.469 29.841 223.35 27.39 219.409 27.39ZM297.805 27.39C295.419 27.39 294.153 28.565 293.26 30.442V27.792H287.792V44.975H293.324V35.167C293.324 32.937 294.228 31.718 295.865 31.718C297.502 31.718 298.303 32.799 298.303 34.925V44.975H303.865V33.968C303.866 29.841 301.745 27.39 297.805 27.39ZM317.112 57.715V67.782C317.112 69.844 316.274 70.972 314.758 70.972C313.244 70.972 312.502 69.972 312.502 68.005V57.715H306.938V68.725C306.938 72.883 308.979 75.302 312.795 75.302C315.066 75.302 316.389 74.128 317.213 72.247V74.898H322.674V57.715H317.112ZM41.2746 47.863C41.2746 51.862 44.5146 55.102 48.5126 55.102C52.5106 55.102 55.7506 51.862 55.7506 47.863C55.7506 43.865 52.5106 40.626 48.5126 40.626C44.5146 40.626 41.2746 43.865 41.2746 47.863ZM45.6796 65.314C45.6796 64.3635 45.4923 63.4223 45.1286 62.5442C44.7649 61.666 44.2317 60.8681 43.5596 60.196C42.8875 59.5239 42.0896 58.9907 41.2114 58.627C40.3333 58.2632 39.3921 58.076 38.4416 58.076C37.4911 58.076 36.5499 58.2632 35.6717 58.627C34.7935 58.9907 33.9956 59.5239 33.3235 60.196C32.6514 60.8681 32.1183 61.666 31.7545 62.5442C31.3908 63.4223 31.2036 64.3635 31.2036 65.314C31.2036 67.2337 31.9661 69.0747 33.3235 70.4321C34.6809 71.7895 36.5219 72.552 38.4416 72.552C40.3612 72.552 42.2022 71.7895 43.5596 70.4321C44.917 69.0747 45.6796 67.2337 45.6796 65.314ZM65.8236 65.314C65.8237 64.3635 65.6366 63.4222 65.2729 62.544C64.9092 61.6658 64.376 60.8678 63.7039 60.1957C63.0318 59.5236 62.2338 58.9904 61.3556 58.6267C60.4774 58.263 59.5361 58.0759 58.5856 58.076C56.6661 58.076 54.8252 58.8385 53.4679 60.1958C52.1106 61.5531 51.3481 63.394 51.3481 65.3135C51.3481 67.233 52.1106 69.0739 53.4679 70.4312C54.8252 71.7885 56.6661 72.551 58.5856 72.551C59.5361 72.5513 60.4773 72.3643 61.3555 72.0007C62.2337 71.6371 63.0317 71.1041 63.7038 70.432C64.376 69.7599 64.9091 68.9621 65.2729 68.0839C65.6366 67.2057 65.8237 66.2645 65.8236 65.314ZM13.6106 60.775C11.6909 60.775 9.84991 61.5376 8.49252 62.895C7.13514 64.2524 6.37256 66.0934 6.37256 68.013C6.37256 69.9327 7.13514 71.7737 8.49252 73.1311C9.84991 74.4885 11.6909 75.251 13.6106 75.251C15.5302 75.251 17.3712 74.4885 18.7286 73.1311C20.086 71.7737 20.8486 69.9327 20.8486 68.013C20.8486 66.0934 20.086 64.2524 18.7286 62.895C17.3712 61.5376 15.5302 60.775 13.6106 60.775ZM83.4156 60.775C81.4959 60.775 79.6549 61.5376 78.2975 62.895C76.9401 64.2524 76.1776 66.0934 76.1776 68.013C76.1776 69.9327 76.9401 71.7737 78.2975 73.1311C79.6549 74.4885 81.4959 75.251 83.4156 75.251C85.3352 75.251 87.1762 74.4885 88.5336 73.1311C89.891 71.7737 90.6536 69.9327 90.6536 68.013C90.6536 66.0934 89.891 64.2524 88.5336 62.895C87.1762 61.5376 85.3352 60.775 83.4156 60.775ZM83.4156 34.953C84.8471 34.9528 86.2464 34.5281 87.4366 33.7326C88.6268 32.9372 89.5543 31.8066 90.102 30.484C90.6496 29.1613 90.7928 27.706 90.5133 26.302C90.2338 24.898 89.5443 23.6084 88.5319 22.5963C87.5195 21.5842 86.2297 20.895 84.8256 20.6159C83.4216 20.3368 81.9663 20.4804 80.6438 21.0284C79.3213 21.5764 78.191 22.5042 77.3958 23.6946C76.6007 24.885 76.1764 26.2845 76.1766 27.716C76.1771 29.6356 76.94 31.4763 78.2975 32.8335C79.655 34.1906 81.496 34.953 83.4156 34.953ZM65.8236 30.414C65.8236 26.416 62.5836 23.177 58.5856 23.177C54.5876 23.177 51.3476 26.416 51.3476 30.414C51.3476 34.412 54.5876 37.652 58.5856 37.652C62.5836 37.652 65.8236 34.412 65.8236 30.414ZM31.2026 30.414C31.1914 31.3718 31.3704 32.3222 31.7291 33.2103C32.0879 34.0983 32.6194 34.9064 33.2927 35.5875C33.966 36.2687 34.7678 36.8095 35.6516 37.1786C36.5355 37.5477 37.4838 37.7377 38.4416 37.7376C39.3994 37.7375 40.3476 37.5474 41.2314 37.1782C42.1152 36.809 42.9169 36.2681 43.5902 35.5868C44.2634 34.9055 44.7947 34.0974 45.1534 33.2093C45.512 32.3212 45.6909 31.3708 45.6796 30.413C45.657 28.508 44.8844 26.6886 43.5293 25.3495C42.1741 24.0104 40.3457 23.2595 38.4406 23.2596C36.5354 23.2597 34.7071 24.0109 33.3521 25.3502C31.9972 26.6895 31.2248 28.509 31.2026 30.414ZM13.6106 20.477C12.6498 20.4612 11.6955 20.6368 10.8033 20.9935C9.91105 21.3503 9.09878 21.881 8.41379 22.5549C7.72881 23.2288 7.18482 24.0323 6.81353 24.9186C6.44225 25.8048 6.25111 26.7561 6.25124 27.717C6.25137 28.6779 6.44278 29.6292 6.81431 30.5154C7.18583 31.4015 7.73005 32.2049 8.41522 32.8786C9.10039 33.5523 9.91281 34.0828 10.8051 34.4393C11.6974 34.7958 12.6518 34.9711 13.6126 34.955C15.5116 34.9232 17.3221 34.1464 18.6538 32.7921C19.9854 31.4377 20.7315 29.6144 20.7312 27.715C20.731 25.8157 19.9844 23.9926 18.6524 22.6386C17.3204 21.2846 15.5096 20.5083 13.6106 20.477ZM48.5136 14.803C50.4332 14.803 52.2742 14.0405 53.6316 12.6831C54.989 11.3257 55.7516 9.48466 55.7516 7.56503C55.7516 6.61452 55.5643 5.67332 55.2006 4.79516C54.8369 3.91701 54.3037 3.1191 53.6316 2.44699C52.9595 1.77488 52.1616 1.24173 51.2834 0.877986C50.4053 0.514243 49.4641 0.327026 48.5136 0.327026C47.5631 0.327026 46.6219 0.514243 45.7437 0.877986C44.8655 1.24173 44.0676 1.77488 43.3955 2.44699C42.7234 3.1191 42.1903 3.91701 41.8265 4.79516C41.4628 5.67332 41.2756 6.61452 41.2756 7.56503C41.2754 8.51557 41.4626 9.45683 41.8263 10.335C42.1899 11.2133 42.7231 12.0112 43.3952 12.6834C44.0674 13.3555 44.8653 13.8886 45.7435 14.2523C46.6218 14.616 47.563 14.8032 48.5136 14.803ZM48.5136 80.926C46.5939 80.926 44.7529 81.6886 43.3955 83.046C42.0381 84.4034 41.2756 86.2444 41.2756 88.164C41.2756 90.0837 42.0381 91.9247 43.3955 93.2821C44.7529 94.6395 46.5939 95.402 48.5136 95.402C50.4332 95.402 52.2742 94.6395 53.6316 93.2821C54.989 91.9247 55.7516 90.0837 55.7516 88.164C55.7516 86.2444 54.989 84.4034 53.6316 83.046C52.2742 81.6886 50.4332 80.926 48.5136 80.926ZM68.6606 40.625C66.7407 40.625 64.8994 41.3877 63.5418 42.7453C62.1842 44.1029 61.4216 45.9441 61.4216 47.864C61.4216 49.7839 62.1842 51.6252 63.5418 52.9828C64.8994 54.3403 66.7407 55.103 68.6606 55.103C70.5805 55.103 72.4217 54.3403 73.7793 52.9828C75.1369 51.6252 75.8996 49.7839 75.8996 47.864C75.8996 45.9441 75.1369 44.1029 73.7793 42.7453C72.4217 41.3877 70.5805 40.625 68.6606 40.625ZM68.6606 5.72603C66.7407 5.72603 64.8994 6.48871 63.5418 7.84628C62.1842 9.20386 61.4216 11.0451 61.4216 12.965C61.4216 14.8849 62.1842 16.7262 63.5418 18.0838C64.8994 19.4413 66.7407 20.204 68.6606 20.204C70.5805 20.204 72.4217 19.4413 73.7793 18.0838C75.1369 16.7262 75.8996 14.8849 75.8996 12.965C75.8996 11.0451 75.1369 9.20386 73.7793 7.84628C72.4217 6.48871 70.5805 5.72603 68.6606 5.72603ZM28.3616 55.102C29.3221 55.1179 30.2761 54.9423 31.1681 54.5857C32.0601 54.229 32.8721 53.6984 33.5569 53.0247C34.2417 52.351 34.7855 51.5477 35.1567 50.6617C35.5279 49.7757 35.719 48.8246 35.7189 47.864C35.7187 46.9034 35.5274 45.9524 35.156 45.0665C34.7845 44.1805 34.2405 43.3774 33.5555 42.7039C32.8705 42.0304 32.0583 41.5 31.1662 41.1436C30.2742 40.7872 29.3201 40.6119 28.3596 40.628C26.461 40.6598 24.651 41.4364 23.3198 42.7904C21.9885 44.1443 21.2426 45.9672 21.2429 47.866C21.2431 49.7648 21.9895 51.5875 23.3212 52.941C24.6528 54.2946 26.463 55.0707 28.3616 55.102ZM28.3616 20.203C30.281 20.2028 32.1218 19.4401 33.479 18.0827C34.8361 16.7254 35.5986 14.8845 35.5986 12.965C35.5986 12.0145 35.4113 11.0733 35.0476 10.1952C34.6839 9.31701 34.1507 8.5191 33.4786 7.84699C32.8065 7.17488 32.0086 6.64173 31.1304 6.27799C30.2523 5.91424 29.3111 5.72703 28.3606 5.72703C27.4101 5.72703 26.4689 5.91424 25.5907 6.27799C24.7125 6.64173 23.9146 7.17488 23.2425 7.84699C22.5704 8.5191 22.0373 9.31701 21.6735 10.1952C21.3098 11.0733 21.1226 12.0145 21.1226 12.965C21.1228 14.8848 21.8856 16.7258 23.2432 18.0831C24.6007 19.4405 26.4418 20.203 28.3616 20.203ZM68.6606 75.525C66.7409 75.5248 64.8998 76.2871 63.5422 77.6443C62.1847 79.0015 61.4218 80.8424 61.4216 82.762C61.4213 84.6817 62.1836 86.5228 63.5408 87.8804C64.898 89.2379 66.7389 90.0008 68.6586 90.001C70.5782 90.0013 72.4193 89.239 73.7769 87.8818C75.1345 86.5246 75.8973 84.6837 75.8976 82.764C75.8978 80.8444 75.1355 79.0033 73.7783 77.6457C72.4211 76.2881 70.5802 75.5253 68.6606 75.525ZM28.3616 75.525C27.4111 75.5249 26.4698 75.712 25.5916 76.0756C24.7134 76.4392 23.9154 76.9723 23.2432 77.6443C21.8857 79.0015 21.1228 80.8424 21.1226 82.762C21.1224 83.7125 21.3095 84.6538 21.6731 85.532C22.0368 86.4102 22.5698 87.2082 23.2418 87.8804C24.599 89.2379 26.4399 90.0008 28.3596 90.001C30.2792 90.0013 32.1203 89.239 33.4779 87.8818C34.8355 86.5246 35.5983 84.6837 35.5986 82.764C35.5988 80.8444 34.8365 79.0033 33.4793 77.6457C32.1221 76.2881 30.2812 75.5253 28.3616 75.525ZM15.4536 47.863C15.4536 46.9125 15.2663 45.9712 14.9025 45.0931C14.5387 44.2149 14.0054 43.417 13.3332 42.745C12.661 42.0729 11.8629 41.5399 10.9847 41.1763C10.1064 40.8128 9.16511 40.6258 8.21456 40.626C7.26406 40.626 6.32285 40.8132 5.4447 41.177C4.56655 41.5407 3.76863 42.0739 3.09652 42.746C2.42441 43.4181 1.89127 44.216 1.52752 45.0942C1.16378 45.9723 0.976562 46.9135 0.976562 47.864C0.976563 48.8145 1.16378 49.7557 1.52752 50.6339C1.89127 51.512 2.42441 52.31 3.09652 52.9821C3.76863 53.6542 4.56655 54.1873 5.4447 54.5511C6.32285 54.9148 7.26406 55.102 8.21456 55.102C10.1345 55.102 11.9757 54.3393 13.3333 52.9818C14.6909 51.6242 15.4536 49.7829 15.4536 47.863ZM88.8076 40.625C87.8569 40.625 86.9156 40.8123 86.0373 41.1761C85.159 41.5399 84.361 42.0731 83.6888 42.7453C83.0166 43.4175 82.4834 44.2155 82.1196 45.0938C81.7558 45.9721 81.5686 46.9134 81.5686 47.864C81.5686 48.8147 81.7558 49.756 82.1196 50.6343C82.4834 51.5126 83.0166 52.3106 83.6888 52.9828C84.361 53.655 85.159 54.1882 86.0373 54.552C86.9156 54.9158 87.8569 55.103 88.8076 55.103C90.7275 55.103 92.5687 54.3403 93.9263 52.9828C95.2839 51.6252 96.0466 49.7839 96.0466 47.864C96.0466 45.9441 95.2839 44.1029 93.9263 42.7453C92.5687 41.3877 90.7275 40.625 88.8076 40.625Z" fill="white"/>
</svg>
