<svg width="134" height="114" viewBox="0 0 134 114" fill="none" xmlns="http://www.w3.org/2000/svg">
<g clip-path="url(#clip0_26_34216)">
<path d="M10.8343 69.6474L11.1792 69.9354C10.8055 67.3432 10.6043 64.5206 11.3516 62.0436C12.4726 58.0688 13.881 54.2093 14.5996 50.0906C15.1745 46.8935 15.8355 43.2932 15.4619 40.2113C15.0307 41.8819 14.5996 43.5236 13.6798 44.9637C10.2019 50.3498 6.63778 56.6863 9.08094 63.5413C9.02345 63.6277 8.93722 63.7141 8.85099 63.6565C7.87373 61.3811 7.64378 58.8177 7.01144 56.3983C5.3156 49.9753 0.400542 44.5893 1.83769 37.1583C1.06163 38.7712 0.774201 40.5858 0.371799 42.3427C-0.490492 46.8935 0.371799 51.7035 1.60775 55.9086C3.13113 61.1219 8.21865 64.8662 10.8343 69.6474Z" fill="white"/>
<path d="M9.51417 36.2942C10.6639 33.9324 12.5322 31.6858 14.7741 30.0152C19.7179 26.2709 25.1216 21.4321 25.2079 15.0956C23.5408 19.6464 18.5682 21.5473 15.2628 24.658C13.5094 26.2997 12.1585 28.2871 11.3825 30.3609L11.2675 30.2745C11.6699 28.4311 12.446 26.7894 12.9921 25.0036C14.4292 20.1648 14.1705 14.3755 18.8844 11.1208C16.47 11.7545 14.4292 13.3098 12.6184 15.326C8.79559 19.56 9.14051 25.8101 9.62914 31.3402C9.8016 33.0683 9.71537 34.5372 9.51417 36.2942Z" fill="white"/>
<path d="M15.2578 22.4978C17.9022 20.0208 20.9489 18.1775 23.1909 15.2396C25.864 11.6969 28.1922 7.72219 31.6988 4.66913C26.9562 6.51248 21.84 8.41344 18.7645 13.3099C16.9537 16.1613 16.6662 19.5312 15.2578 22.4978Z" fill="white"/>
<path d="M17.2406 35.0269C18.3903 32.6939 19.1089 30.0441 19.4251 27.4807C18.9939 28.5752 18.3329 29.5832 17.4131 30.4473C13.5615 34.1052 9.04886 37.6767 8.18657 42.8612C8.0716 43.61 7.98537 44.3589 7.78417 45.0789C7.61171 45.1654 7.61171 44.9637 7.55422 44.9061L8.04286 38.512C8.50274 32.2619 5.22604 25.3205 8.81892 19.8192C8.70395 19.7904 8.61772 19.9056 8.53149 19.9344C5.25478 24.1108 3.07031 28.7192 3.07031 34.3356C3.07031 41.277 7.06559 46.1446 7.55422 52.654C8.58897 45.8566 14.2801 41.0178 17.2406 35.0269Z" fill="white"/>
<path d="M9.62651 77.6833C13.3344 80.6211 17.7608 82.8965 21.1525 85.4887C20.4914 83.7894 19.3991 82.2341 18.968 80.4771C16.9847 72.4412 18.077 63.1092 14.6565 55.6782C15.2889 59.9122 13.6218 63.6565 13.2481 67.6888C12.932 71.0011 13.5068 74.227 14.8003 76.992C15.1739 77.8273 15.8637 78.5473 16.065 79.4114C14.829 78.2881 13.938 76.8768 13.1044 75.4943C9.10914 69.0137 0.744917 64.8086 0.170056 56.9167C-0.117374 60.4306 0.198799 64.1461 1.34852 67.2568C2.92939 71.5196 6.03363 74.8318 9.62651 77.6833Z" fill="white"/>
<path d="M60.041 98.9683C53.5738 98.9683 47.7677 102.108 42.1054 104.47C36.9604 106.601 30.1483 106.198 25.5781 103.029C27.8201 105.852 30.8381 107.609 33.9711 108.79C39.7484 111.094 46.503 109.337 51.4468 106.169C54.9822 103.893 58.029 100.668 62.2542 100.668C69.0663 100.668 76.2233 107.667 82.3456 114.003C83.2941 113.225 84.3001 112.419 85.0762 111.526C78.6665 105.42 69.6124 98.9683 60.041 98.9683Z" fill="white"/>
<path d="M48.4874 99.6595C49.4934 99.4003 50.7006 99.4867 51.6204 99.1411C47.7688 98.3634 44.061 97.1825 41.0717 94.4463C36.789 90.5292 32.9949 86.3528 28.4247 83.2997C32.0176 88.1386 33.0236 95.1663 39.577 97.6146C40.7268 98.0466 42.0777 98.133 43.0837 98.7667C41.819 98.9683 40.7268 98.565 39.5483 98.3058C31.0978 96.4913 20.8078 98.8243 14.4844 91.6236C16.87 96.3472 21.8138 100.063 26.5852 101.618C33.9147 104.095 41.5891 101.359 48.4874 99.6595Z" fill="white"/>
<path d="M34.349 96.1168C28.859 91.6813 28.0255 85.0279 25.5823 79.2098C24.059 75.5807 21.5871 72.326 18.9427 69.1578C21.8457 74.9759 20.5811 82.4645 24.3464 87.937C25.5249 89.6651 27.1632 91.3068 28.6866 92.6606L28.6291 92.747C27.2494 92.1133 26.0135 91.134 24.7488 90.0971C18.1666 84.5959 8.25029 83.9046 4.3125 74.9471C5.37599 81.514 10.5785 87.3321 16.2121 91.0188C21.5583 94.5327 28.4279 94.1583 34.349 96.1168Z" fill="white"/>
<path d="M110.831 15.2396C113.073 18.2063 116.119 20.0208 118.764 22.4978C117.355 19.5312 117.068 16.1613 115.286 13.3099C112.21 8.41344 107.094 6.51248 102.352 4.66913C105.801 7.72219 108.129 11.6681 110.831 15.2396Z" fill="white"/>
<path d="M121.039 25.0036C121.556 26.7606 122.332 28.4311 122.763 30.2745L122.648 30.3609C121.872 28.2871 120.521 26.2997 118.768 24.658C115.462 21.5185 110.49 19.6464 108.852 15.0668C108.938 21.4321 114.341 26.2709 119.285 29.9864C121.498 31.657 123.396 33.9036 124.545 36.2654C124.344 34.5084 124.258 33.0395 124.43 31.3402C124.948 25.7813 125.264 19.56 121.47 15.326C119.659 13.3098 117.618 11.7257 115.204 11.1208C119.86 14.3755 119.601 20.1648 121.039 25.0036Z" fill="white"/>
<path d="M125.976 38.4832L126.465 44.8773C126.407 44.9349 126.407 45.1077 126.235 45.0501C126.033 44.3301 125.947 43.5812 125.832 42.8323C124.97 37.6767 120.429 34.0764 116.606 30.4185C115.686 29.5544 115.025 28.5463 114.594 27.4518C114.91 30.0153 115.629 32.6651 116.778 34.9981C119.739 40.989 125.43 45.8278 126.465 52.654C126.953 46.1158 130.949 41.277 130.949 34.3356C130.949 28.7191 128.764 24.1108 125.487 19.9344C125.401 19.8768 125.315 19.7904 125.2 19.8192C128.793 25.3205 125.487 32.2618 125.976 38.4832Z" fill="white"/>
<path d="M127.013 56.3695C126.38 58.7889 126.15 61.3811 125.173 63.6277C125.087 63.6853 125.001 63.5701 124.943 63.5125C127.386 56.6575 123.822 50.3498 120.344 44.9349C119.424 43.5236 118.993 41.853 118.562 40.1825C118.188 43.2932 118.85 46.8647 119.424 50.0617C120.172 54.1805 121.551 58.04 122.672 62.0147C123.42 64.4918 123.219 67.2856 122.845 69.9066L123.19 69.6186C125.777 64.8374 130.893 61.0931 132.445 55.851C133.681 51.6747 134.543 46.8359 133.681 42.2851C133.279 40.5281 132.962 38.7136 132.215 37.1006C133.623 44.5605 128.708 49.9465 127.013 56.3695Z" fill="white"/>
<path d="M91.8899 104.47C86.1988 102.108 80.4214 98.9683 73.9543 98.9683C64.4116 98.9683 55.3288 105.449 48.9766 111.526C49.7526 112.419 50.7586 113.254 51.7071 114.003C57.8007 107.695 64.9864 100.668 71.7985 100.668C76.0237 100.668 79.0705 103.893 82.6059 106.169C87.521 109.308 94.2756 111.094 100.082 108.79C103.186 107.609 106.204 105.852 108.475 103.029C103.876 106.169 97.0349 106.601 91.8899 104.47Z" fill="white"/>
<path d="M120.946 75.4367C120.084 76.8192 119.222 78.2593 117.986 79.3538C118.187 78.5185 118.877 77.7697 119.251 76.9344C120.544 74.1406 121.119 70.9435 120.803 67.6312C120.4 63.5989 118.733 59.8546 119.394 55.6206C115.945 63.0516 117.066 72.3836 115.083 80.4195C114.652 82.2052 113.56 83.7606 112.898 85.4311C116.29 82.8389 120.717 80.5635 124.424 77.6257C128.017 74.803 131.122 71.4619 132.76 67.1416C133.938 64.0309 134.226 60.3154 133.938 56.8015C133.335 64.751 124.942 68.9561 120.946 75.4367Z" fill="white"/>
<path d="M109.225 90.0971C107.96 91.134 106.725 92.1133 105.345 92.747L105.287 92.6606C106.811 91.278 108.449 89.6363 109.628 87.937C113.393 82.4645 112.128 74.9471 115.031 69.1578C112.387 72.326 109.915 75.5807 108.392 79.2098C105.948 85.0279 105.115 91.6813 99.625 96.1168C105.546 94.1583 112.416 94.5327 117.733 91.0476C123.338 87.3609 128.54 81.5428 129.633 74.9759C125.724 83.9046 115.836 84.5959 109.225 90.0971Z" fill="white"/>
<path d="M94.4783 98.3346C93.2999 98.5938 92.2076 98.9683 90.9429 98.7955C91.9489 98.1618 93.2711 98.0754 94.4496 97.6434C101.003 95.1664 102.009 88.1386 105.602 83.3286C101.032 86.3816 97.2377 90.558 92.9549 94.4751C89.9657 97.2113 86.2578 98.3634 82.4062 99.1699C83.326 99.5155 84.5332 99.4291 85.5392 99.6883C92.4663 101.416 100.112 104.124 107.47 101.676C112.213 100.092 117.157 96.376 119.571 91.6813C113.219 98.8531 102.9 96.5489 94.4783 98.3346Z" fill="white"/>
<path d="M66.9963 0.00311279C40.8402 0.00311279 19.5703 21.3169 19.5703 47.5271C19.5703 73.7373 40.8402 95.0511 66.9963 95.0511C93.1525 95.0511 114.422 73.7373 114.422 47.5271C114.422 21.3169 93.1525 0.00311279 66.9963 0.00311279ZM66.9963 56.5999C61.995 56.5999 57.9423 52.5387 57.9423 47.5271C57.9423 42.5155 61.995 38.4543 66.9963 38.4543C71.9976 38.4543 76.0504 42.5155 76.0504 47.5271C76.0504 52.5387 71.9976 56.5999 66.9963 56.5999ZM73.8084 39.8945C72.1413 38.3967 69.9856 37.4463 67.5999 37.3023V29.5256C72.1126 29.6696 76.2228 31.4842 79.2983 34.3932L73.8084 39.8945ZM66.4214 37.3023C64.0358 37.4463 61.8801 38.3967 60.213 39.8945L54.723 34.3932C57.7985 31.4842 61.9088 29.6696 66.4214 29.5256V37.3023ZM59.4082 40.7297C57.9135 42.4003 56.965 44.5605 56.8213 46.9511H49.0607C49.2044 42.4291 51.0152 38.3103 53.9182 35.2285L59.4082 40.7297ZM56.8213 48.1032C56.965 50.4938 57.9135 52.6539 59.4082 54.3245L53.9182 59.8257C51.0152 56.7439 49.2044 52.6251 49.0607 48.1032H56.8213ZM60.213 55.1598C61.8801 56.6575 64.0358 57.608 66.4214 57.752V65.5286C61.9088 65.3846 57.7985 63.5701 54.723 60.661L60.213 55.1598ZM67.5712 57.7232C69.9568 57.5792 72.1126 56.6287 73.7797 55.131L79.2696 60.6322C76.1941 63.5413 72.0838 65.3558 67.5712 65.4998V57.7232ZM74.6132 54.3245C76.1079 52.6539 77.0564 50.4938 77.2001 48.1032H84.9607C84.817 52.6251 83.0062 56.7439 80.1031 59.8257L74.6132 54.3245ZM77.2001 46.9511C77.0564 44.5605 76.1079 42.4003 74.6132 40.7297L80.1031 35.2285C83.0062 38.3103 84.817 42.4291 84.9607 46.9511H77.2001ZM80.1031 33.5867C76.7977 30.4761 72.4287 28.5175 67.5712 28.3735V19.7328C74.7857 19.8768 81.3391 22.8146 86.1967 27.4806L80.1031 33.5867ZM66.4214 28.3735C61.5926 28.5175 57.1949 30.4761 53.8895 33.5867L47.796 27.4806C52.6535 22.8146 59.2069 19.8768 66.4214 19.7328V28.3735ZM53.0847 34.3932C49.9804 37.7055 48.0259 42.0835 47.8822 46.9511H39.2593C39.403 39.7217 42.3348 33.1547 46.9912 28.2871L53.0847 34.3932ZM47.9109 48.1032C48.0547 52.942 50.0092 57.3487 53.1134 60.661L46.9912 66.7671C42.3348 61.8995 39.403 55.3326 39.2593 48.1032H47.9109ZM53.9182 61.4675C57.2237 64.5781 61.5926 66.5367 66.4502 66.6807V75.3215C59.2357 75.1774 52.6823 72.2396 47.8247 67.5736L53.9182 61.4675ZM67.5712 66.6519C72.4 66.5079 76.7977 64.5493 80.1031 61.4387L86.1967 67.5448C81.3391 72.2108 74.7857 75.1486 67.5712 75.2926V66.6519ZM80.9079 60.6322C84.0122 57.3199 85.9667 52.942 86.1104 48.0744H94.7333C94.5896 55.3038 91.6578 61.8707 87.0015 66.7383L80.9079 60.6322ZM86.1104 46.9511C85.9667 42.1123 84.0122 37.7055 80.9079 34.3932L87.0015 28.2871C91.6578 33.1547 94.5896 39.7217 94.7333 46.9511H86.1104ZM87.0015 26.6742C81.9427 21.8066 75.1018 18.7535 67.5712 18.6095V10.948C77.2001 11.092 85.938 15.0092 92.3764 21.2593L87.0015 26.6742ZM66.4214 18.5807C58.8908 18.7247 52.0499 21.7777 46.9912 26.6454L41.6162 21.2593C48.0547 15.0092 56.7925 11.092 66.4214 10.948V18.5807ZM46.1864 27.4806C41.3288 32.5499 38.282 39.4048 38.1383 46.9511H30.5214C30.6651 37.3023 34.5742 28.5463 40.8114 22.0946L46.1864 27.4806ZM38.1383 48.1032C38.282 55.6494 41.3288 62.5044 46.1864 67.5736L40.8114 72.9597C34.5742 66.5079 30.6651 57.752 30.5214 48.1032H38.1383ZM46.9912 68.3801C52.0499 73.2477 58.8908 76.3007 66.4214 76.4447V84.0774C56.7925 83.9334 48.0547 80.0162 41.6162 73.7661L46.9912 68.3801ZM67.5712 76.4735C75.1018 76.3295 81.9427 73.2765 87.0015 68.4089L92.3764 73.7949C85.938 80.045 77.2001 83.9622 67.5712 84.1062V76.4735ZM87.835 67.5736C92.6926 62.5044 95.7393 55.6494 95.8831 48.1032H103.5C103.356 57.752 99.4472 66.5079 93.21 72.9597L87.835 67.5736ZM95.8831 46.9511C95.7393 39.4048 92.6926 32.5499 87.835 27.4806L93.21 22.0946C99.4472 28.5463 103.356 37.3023 103.5 46.9511H95.8831ZM93.21 20.4528C86.5416 13.9723 77.545 9.93995 67.5712 9.79594V1.15521C79.9019 1.29922 91.083 6.31084 99.3035 14.3467L93.21 20.4528ZM66.4214 9.79594C56.4764 9.93995 47.4511 13.9723 40.7827 20.4528L34.7179 14.3467C42.9384 6.31084 54.1194 1.29922 66.4502 1.15521V9.79594H66.4214ZM39.9779 21.2593C33.5107 27.9415 29.4867 36.9566 29.3429 46.9511H20.72C20.8637 34.5948 25.865 23.3907 33.8843 15.1532L39.9779 21.2593ZM29.3717 48.1032C29.5154 58.0688 33.5394 67.1128 40.0066 73.7949L33.8843 79.8722C25.865 71.6635 20.8925 60.4594 20.7488 48.1032H29.3717ZM40.8114 74.6014C47.4798 81.0819 56.4764 85.1143 66.4502 85.2583V93.899C54.1194 93.755 42.9384 88.7434 34.7179 80.7075L40.8114 74.6014ZM67.5712 85.2583C77.5163 85.1143 86.5416 81.0819 93.21 74.6014L99.3035 80.7075C91.083 88.7434 79.9019 93.755 67.5712 93.899V85.2583ZM94.0148 73.7661C100.482 67.084 104.506 58.0688 104.65 48.0744H113.273C113.129 60.4306 108.128 71.6347 100.108 79.8722L94.0148 73.7661ZM104.65 46.9511C104.506 36.9854 100.482 27.9415 94.0148 21.2593L100.108 15.1532C108.128 23.3907 113.129 34.5948 113.273 46.9511H104.65Z" fill="white"/>
<path d="M69.7249 36.5246L69.4375 36.5534V36.899L69.7249 36.8702V36.5246Z" fill="white"/>
<path d="M69.3815 36.0638H69.0078V36.3518H69.3815V36.0638Z" fill="white"/>
<path d="M68.3203 35.9774L68.6652 36.035L68.694 35.7469L68.3491 35.6893L68.3203 35.9774Z" fill="white"/>
<path d="M68.0271 35.8622L67.7109 35.8334L67.7397 35.5453L68.0846 35.5742L68.0271 35.8622Z" fill="white"/>
<path d="M65.6471 35.4877H65.2734V35.7758H65.6471V35.4877Z" fill="white"/>
<path d="M64.4375 36.0638L64.7824 36.1214L64.8112 35.8334L64.495 35.7758L64.4375 36.0638Z" fill="white"/>
<path d="M64.4962 36.5246L64.0938 36.4094L64.18 36.1214L64.5536 36.2366L64.4962 36.5246Z" fill="white"/>
<path d="M63.8075 36.8702L63.75 36.5822L64.0374 36.5246L64.0949 36.8126L63.8075 36.8702Z" fill="white"/>
<path d="M26.2955 66.6807V67.3144H26.583L26.5255 66.5943L26.1518 66.4503V66.1911H25.9219V66.6807H26.2955Z" fill="white"/>
<path d="M28.3047 68.4377L29.0233 68.7833L29.2532 69.4458L29.5981 69.705L29.9143 70.425L29.7418 70.7707L29.1957 70.281L28.8221 69.7338L28.6209 69.3018L28.3047 68.4377Z" fill="white"/>
<path d="M40.3816 83.3862L40.6403 84.0198L40.2954 84.2214L40.0942 83.9334L39.6343 83.7894L39.5768 83.3574L39.2031 82.7813L39.778 82.8677L40.3816 83.3862Z" fill="white"/>
<path d="M65.5294 39.6641H65.012L64.9258 38.5984L65.2132 38.3968V37.8496H63.5461L63.4886 37.3023L63.7186 37.1583L63.3449 37.0143L63.0575 37.3887L62.9712 37.8208L62.4826 37.9072V38.1376H62.1377V38.7712L60.7868 39.8945L58.1137 39.8081C57.9125 40.2402 57.4526 39.7505 57.4526 39.7505C57.3664 39.4625 56.6765 39.7505 56.6765 39.7505C56.6765 40.2978 55.7567 39.5201 55.7567 39.5201L54.0897 38.3104C53.1411 37.4463 51.704 38.5408 51.6465 38.8C51.704 39.4913 50.5543 38.944 50.5543 38.944C50.5543 38.944 49.6057 38.656 49.462 39.0305C49.3183 39.4049 48.686 39.3185 48.686 39.3185L48.5997 39.5201L48.1111 39.6065L48.0249 39.8945L47.45 39.9809L48.8872 39.9233C49.2608 39.8657 48.7434 40.7586 48.5135 40.701L47.8524 40.7586L47.6225 40.989H46.9901L46.7027 41.3923L45.7829 41.3346C45.7829 41.3346 45.2655 41.7667 45.2943 41.9107C45.3518 42.0547 45.2081 42.4867 45.0643 42.4867C44.9206 42.4867 44.6332 42.9188 44.7194 43.0628C44.8057 43.2068 44.432 43.6964 44.432 43.6964L44.3458 44.1861L44.0583 44.2725V45.5974L43.4835 46.0006V46.5767L42.6212 47.4984L42.7074 48.276L41.9888 49.0537L42.0751 49.8314L41.6439 49.9754L41.5577 50.321L41.3565 51.3291L41.8451 51.3867C42.0751 51.3003 42.0463 52.0203 41.8451 52.1068C41.6439 52.1932 41.1265 52.3948 41.414 52.5964C41.7014 52.798 40.6379 52.7404 40.6379 52.4524C40.6379 52.1644 40.0631 51.9051 39.9193 52.0203C39.7756 52.1068 39.5457 51.5883 39.5457 51.5883C39.0283 51.0411 37.39 51.6459 37.39 51.6459L37.16 52.4236C36.6426 52.51 36.2977 53.4029 36.2977 53.4029C35.8666 53.5469 35.5217 54.0941 35.6654 54.2381C35.8091 54.3821 35.4354 54.4398 35.4354 54.4398V55.5054L35.2055 55.8511L35.263 57.0032C35.5504 57.0032 35.4929 57.5504 35.4929 57.5504C35.0043 57.608 35.1193 58.2417 35.1193 58.2417L34.1132 58.5873L33.912 58.8753L32.6761 58.8177L32.3312 59.1634L31.9863 58.8177H29.6006L29.5144 58.5873L29.0257 58.5009L28.9682 57.9536L28.2497 58.0113L28.106 58.2993L27.3299 58.3569C27.3874 58.8465 26.5538 59.5666 26.4676 59.365C26.3814 59.1634 25.8353 58.6449 26.0939 58.5297C26.3239 58.4433 26.9562 58.3281 26.9562 58.3281V57.9825L25.1742 57.9248L24.973 58.2129L24.2544 58.2705V59.0481L23.9095 59.1345C23.6795 59.2786 23.967 59.8258 23.967 59.8258C24.3119 60.1714 23.9095 60.6899 23.9095 60.6899C23.622 60.9779 24.1394 61.5252 24.1394 61.5252C24.5131 61.6116 23.9095 61.8996 23.9095 61.8996C23.9957 62.3892 24.2831 62.5332 24.2831 62.5332C23.9957 63.0229 24.4843 63.2533 24.4843 63.2533L24.5418 64.0886L24.8867 64.2902V64.8374L25.0879 65.1831H25.864L25.8065 63.9734C25.1454 63.1957 26.3814 62.9941 26.4389 63.2821C26.4963 63.5701 27.0137 63.7141 27.0137 63.7141C27.0999 64.4342 27.9335 64.8662 28.1634 64.1462C28.3934 63.4261 28.5946 63.8581 28.7383 64.2038C28.882 64.5494 29.8018 65.3847 29.8018 65.3847H30.5204L30.6066 66.0759C31.4114 66.0183 31.6701 66.1335 31.9863 67.228C32.3312 68.3513 33.2222 68.6393 33.2222 68.6393L33.8833 68.5817C33.8833 68.0057 34.5444 68.6681 34.5444 68.985C34.5444 69.273 35.8378 70.3963 35.8378 70.3963L37.1313 70.6843L38.3385 71.6636L39.2582 71.5772H39.6319C39.8619 70.7419 41.0116 71.6348 41.1265 71.9228C41.2128 72.2108 41.9888 72.7005 42.0751 72.4701C42.1613 72.2397 42.7074 72.3837 42.7936 73.1037C42.8799 73.8238 43.2248 73.6798 43.2248 73.6798L45.9554 73.6222L46.9039 72.7869L49.3471 72.7293C50.583 72.6717 49.8357 70.9723 49.577 70.9723C49.1459 70.6267 49.7207 69.2154 49.7207 69.2154L46.2428 65.9607C45.438 65.9607 46.1566 64.7798 46.1566 64.7798C46.7889 64.3766 46.0129 63.7717 46.0129 63.7717C46.0991 63.1957 45.6679 62.5044 45.6679 62.5044C44.8057 61.9284 45.0356 60.8051 45.0356 60.8051V60.0274C44.317 59.3362 45.323 59.2498 45.323 59.2498C45.6679 58.6737 45.0931 58.2417 45.0931 58.2417L45.0356 57.608L44.2595 57.5216L44.1733 55.2462L42.4487 52.7692C42.1038 52.6828 42.3625 52.078 42.3625 52.078C42.7936 51.8475 42.2763 51.2427 42.2763 51.2427L42.2188 50.177L43.2248 50.0906L43.4547 49.7162H43.9434L43.8859 48.4488C44.1158 47.8152 44.6907 48.1608 44.6907 48.1608L45.3518 48.2184L45.7254 47.4984L45.8117 46.9223L45.2943 46.8647C44.7194 46.5191 45.0069 45.2518 45.0069 45.2518C45.9266 43.8981 46.9614 44.6757 46.9614 44.6757L47.6225 44.6181C48.6285 45.3094 47.7087 46.5479 47.7087 46.5479C47.5075 46.8359 47.6225 47.7576 47.6225 47.7576L47.8524 49.3129L47.2201 49.8602C46.7027 50.1482 46.7027 50.8394 47.2776 50.9835C47.6512 51.0411 47.5075 51.9627 46.9326 51.3291C46.0703 51.3291 47.4213 52.1068 47.0189 51.9051C47.8812 52.3372 47.68 51.5307 47.68 51.5307L48.8297 50.609C49.2608 50.2634 50.0369 51.3291 50.0369 51.4731C50.0369 51.6171 51.9339 51.5307 51.9339 51.5307C52.4513 51.8763 52.6525 52.7404 52.6525 52.7404C53.1699 52.0492 54.2909 52.6828 53.4573 53.086C54.2334 53.5757 54.2334 54.0077 54.2334 54.0077C54.8657 53.8061 54.8657 54.2957 54.8657 54.4398C54.8657 54.5838 55.0669 53.7197 55.0669 53.7197C54.3483 53.1724 56.0154 52.9996 55.5555 53.9501L55.2681 54.3821L55.7567 54.7566L55.8142 55.8799C56.8777 55.7935 56.5903 54.4686 56.5903 54.4686L57.0789 54.3821C57.0789 53.9501 57.4238 54.1805 57.4238 54.1805C57.0789 52.5388 58.1999 52.2508 58.1999 52.2508C58.8323 52.1068 58.861 50.7818 58.861 50.7818C58.4298 50.5802 58.6598 49.9178 59.1484 50.4938C59.6371 51.0699 58.861 49.3129 58.861 49.3129L58.4873 48.9673L57.97 48.9097L57.9125 48.3624H57.0502L56.9065 49.0537L56.5903 49.1977L56.5041 48.9961L56.3603 49.5433H55.4981L55.4406 48.9673L55.9579 48.8233L56.1591 48.5353L56.3029 47.7576H56.9352L57.74 47.5272C57.7975 46.6919 58.2286 46.8935 58.2286 46.8935L58.5161 47.1239L58.9472 47.4696L59.0047 47.7576L58.7173 47.9016L58.6598 48.3048L58.8035 48.8521H59.1772C59.3209 48.0744 60.3269 48.0744 60.6143 48.5641L60.9017 47.8728C60.2407 47.5272 60.9018 47.0087 61.0742 47.2391C61.2754 47.4696 61.7066 46.6055 61.7066 46.6055C61.7066 46.6055 62.0515 47.0375 61.7066 46.4615C61.3616 45.8854 61.9365 45.5974 61.9365 45.5974C61.8503 45.0214 62.5688 45.1078 62.5688 45.1078L62.6263 44.3301L61.9652 44.2725C61.8215 44.9638 61.2467 44.3589 61.5341 44.2149C61.8215 44.0709 62.109 43.7829 62.109 43.7829V43.2932L62.3964 43.2068L62.4539 42.7172H63.1724L63.8048 42.4291L63.9485 42.1987L64.6096 42.1411L65.5581 41.277L65.4719 40.9026C64.897 40.9026 65.4719 40.4706 65.4719 40.4706L65.5294 39.6641Z" fill="white"/>
<path d="M46.272 49.2841L45.4097 49.1977L45.4672 49.5433H45.6972C46.0708 50.2346 45.7547 51.8763 45.7547 51.8763C45.7547 51.8763 45.1798 51.9339 45.0936 51.6459C45.0073 51.3579 44.7486 52.2796 44.9498 52.4236C45.151 52.5676 45.8121 52.4236 45.8696 52.9708C45.9271 53.5181 46.3008 52.6252 46.3008 52.6252L46.272 49.2841Z" fill="white"/>
<path d="M45.4062 53.23V54.3821L46.1536 55.419L46.441 54.7277L46.556 54.2957L46.2111 54.1517L46.2685 53.4316L46.556 53.374L46.5847 53.0284L45.8661 53.518L45.4062 53.23Z" fill="white"/>
<path d="M46.6471 56.4847V55.9951L46.3022 56.0527L46.2734 56.4271L46.6471 56.4847Z" fill="white"/>
<path d="M46.2149 58.8177V58.472L45.8125 58.5296V58.8753L46.2149 58.8177Z" fill="white"/>
<path d="M46.7871 57.32C46.9021 57.32 46.9883 57.2336 46.9883 57.1184C46.9883 57.0032 46.9021 56.9167 46.7871 56.9167C46.6722 56.9167 46.5859 57.0032 46.5859 57.1184C46.5859 57.2336 46.6722 57.32 46.7871 57.32Z" fill="white"/>
<path d="M47.1075 58.328C47.2186 58.328 47.3087 58.2378 47.3087 58.1264C47.3087 58.0151 47.2186 57.9248 47.1075 57.9248C46.9963 57.9248 46.9062 58.0151 46.9062 58.1264C46.9062 58.2378 46.9963 58.328 47.1075 58.328Z" fill="white"/>
<path d="M47.1309 52.7692C47.242 52.7692 47.3321 52.6789 47.3321 52.5676C47.3321 52.4562 47.242 52.366 47.1309 52.366C47.0198 52.366 46.9297 52.4562 46.9297 52.5676C46.9297 52.6789 47.0198 52.7692 47.1309 52.7692Z" fill="white"/>
<path d="M62.4527 45.9718H62.7401L62.7976 46.2886L62.5964 46.4614L62.5102 46.7206L62.1365 46.8071L61.2743 47.6423L61.2168 48.0168L60.9868 48.3624L60.6994 49.0825L59.6934 49.1401L59.4922 50.0041L59.6359 50.753L60.4982 51.0986L60.5844 50.609L60.8718 50.465L60.9293 49.9753L61.1305 49.6297L61.418 49.2841L61.5042 48.9096L61.9928 48.6216L62.5677 48.5064L62.7976 48.2184L62.8839 47.6423L62.9414 47.2103L63.1426 46.8935L63.7174 46.663V45.7414H63.43L63.3725 45.3957L62.8551 45.3381L62.7401 45.5974H62.5102L62.4527 45.9718Z" fill="white"/>
<path d="M64.694 48.708V48.0168L64.6077 47.3831L63.8892 47.0375L63.3718 47.5271L63.2856 48.2184V48.6504L62.7969 48.7368L62.7107 50.0617L62.337 50.2057L62.3945 50.6954L61.8772 50.8394L61.3598 50.9834L61.2736 51.6171L60.8999 51.8475L60.6987 52.4235L60.4688 53.8348C60.4688 53.8348 60.8999 54.6701 61.1298 54.2669C61.3598 53.8925 61.7622 53.8348 61.7622 53.8348L61.9059 53.4892L63.1993 53.5468C63.2856 52.9996 63.9179 53.2012 63.9179 53.4604C63.9179 53.6908 64.4065 53.518 64.4065 53.518L64.7515 52.9708H65.2688L65.3263 52.3947L65.5563 52.2507V51.3866C66.3323 51.1562 66.2174 50.4074 66.2174 50.4074L66.4186 50.1769L66.3323 49.8313C65.9587 49.6873 66.1311 49.3417 66.3898 49.4281C66.6198 49.5145 66.0449 48.996 66.0449 48.996C65.7575 49.2265 65.5275 48.708 65.5275 48.708H64.694Z" fill="white"/>
<path d="M65.4743 54.5837C65.4168 55.1598 64.6982 55.3614 64.6982 55.3614L64.1809 55.2174L63.8934 54.987L63.8359 54.2957L64.2671 54.2381L64.3533 54.5261L65.4743 54.5837Z" fill="white"/>
<path d="M68.0564 51.4731C68.1714 51.9051 68.1427 50.7818 68.3439 50.8394C68.5451 50.8971 68.4014 50.1482 68.4014 50.1482L67.5391 50.7818C67.9415 50.8395 67.9989 51.2715 68.0564 51.4731Z" fill="white"/>
<path d="M70.5874 48.9385C70.7886 49.3705 70.7311 50.0042 71.4497 50.4938C71.6796 50.6666 71.306 50.9834 71.076 50.8394C70.8461 50.6954 70.1562 49.6297 70.1562 49.6297V48.9961C70.3 48.6216 70.5012 48.7657 70.5874 48.9385Z" fill="white"/>
<path d="M70.5859 63.7141L70.7297 63.8581L70.8734 64.1174L71.1895 63.5701L70.9309 63.4837L70.5859 63.7141Z" fill="white"/>
<path d="M76.3053 62.2452L76.6789 61.986L76.5352 61.7556L76.1328 61.986L76.3053 62.2452Z" fill="white"/>
<path d="M90.1346 72.3836L90.5658 72.5852L90.6233 73.4205C91.1981 73.9966 93.0664 73.5069 93.0664 73.3629C93.0664 73.2189 92.9802 71.5772 92.9802 71.5772L92.7502 71.3467L92.6928 70.137C92.894 69.5034 91.773 68.5817 91.6868 68.7833C91.6005 68.9849 90.9682 68.8409 90.9682 69.0137C90.9682 69.2154 90.5945 70.1658 90.767 70.5115C90.9682 70.8571 90.6233 70.8571 90.5658 71.2027C90.5083 71.4908 90.0197 72.0668 90.1346 72.3836Z" fill="white"/>
<path d="M89.0679 70.4251C88.9817 70.7995 88.6368 71.0011 88.4356 70.8571C88.2344 70.7131 88.6655 71.0875 88.7805 71.2892C88.8667 71.4908 89.1541 71.4908 89.2691 71.2892C89.3553 71.0875 89.3266 70.6555 89.4128 70.4539C89.4991 70.2811 89.1254 70.2235 89.0679 70.4251Z" fill="white"/>
<path d="M87.2043 61.5251H86.8594V62.4468H87.2043V61.5251Z" fill="white"/>
<path d="M91.797 52.1643C91.5958 51.8763 92.7455 51.3866 92.9467 51.9627C93.1479 52.5387 92.9467 52.4523 92.7455 52.3947C92.573 52.3371 92.0844 52.5387 91.797 52.1643Z" fill="white"/>
<path d="M92.8387 45.655L92.7812 45.943L93.2986 46.0294L93.3561 45.7414L92.8387 45.655Z" fill="white"/>
<path d="M91.4845 46.4903L91.5132 46.5767L91.8007 46.4615L91.6857 46.231L91.6282 46.0582L91.4845 46.1446L91.1396 46.3463L90.8234 46.1446L90.6797 46.4039L91.0533 46.6343L91.1396 46.6919L91.1971 46.6343L91.4845 46.4903Z" fill="white"/>
<path d="M93.2979 34.6525H92.5794C92.5794 34.6525 92.8093 34.7389 92.1482 34.1052C91.4871 33.4716 91.056 34.2492 91.056 34.2492L90.2799 34.3356V35.1133L89.9062 35.2573L89.9637 35.747L90.4811 35.6894C90.4811 35.6894 90.4811 36.2654 90.6248 36.035C90.7685 35.8046 91.9758 36.0926 91.8608 36.6686C91.832 36.8991 93.068 37.5327 92.9243 38.3104C93.5566 38.3968 93.4129 39.0304 93.4129 39.0304L94.2177 39.1168L94.4477 38.6272L94.6776 38.6848V38.3968L94.1602 38.2528L94.074 36.6974L93.7291 36.467L93.8153 36.0638L93.4416 35.9198L93.6428 35.2861L93.2979 34.6525Z" fill="white"/>
<path d="M95.3926 39.6065L95.0189 39.5489L94.1566 39.6929L93.668 40.6146C93.668 40.6146 93.8979 40.7586 94.0991 41.1042C94.3003 41.4498 94.3866 43.4372 93.8117 43.7828C93.2368 44.1285 93.8692 43.9269 93.8692 43.9269L93.783 44.9925C93.9267 45.4822 94.1566 45.223 94.3003 44.9925C94.4441 44.7621 94.5878 44.7045 94.789 44.4453C94.9902 44.2149 95.2776 43.754 95.3063 43.4372C95.3638 43.0916 95.5938 42.5731 95.4501 42.4291C95.3063 42.2851 95.5938 41.5939 95.5938 41.5939C95.5938 41.5939 95.795 41.1906 95.5938 40.8162C95.3926 40.413 95.6513 39.9809 95.795 39.8081L95.3926 39.6065Z" fill="white"/>
<path d="M95.9688 41.5939L95.9975 41.2194L96.2849 41.2482L96.2562 41.6515L95.9688 41.5939Z" fill="white"/>
<path d="M95.9384 42.9475L95.6797 42.8035L95.8234 42.5155L96.0821 42.6595L95.9384 42.9475Z" fill="white"/>
<path d="M95.5365 39.088L95.3353 38.656C95.3353 38.656 95.3353 38.2816 95.4215 38.0799C95.5078 37.8783 95.2203 37.7055 95.0766 37.6479C94.9329 37.5903 94.9904 37.2159 94.9329 37.0143C94.8754 36.8126 94.5592 36.6686 94.5592 36.6686C94.5592 36.6686 94.473 35.9486 94.473 35.8046C94.473 35.6605 94.0419 35.4589 94.1856 35.3149C94.3293 35.1709 94.4155 34.9693 94.5592 34.8829C94.703 34.7965 94.4155 34.1052 94.6455 34.2492C94.8754 34.3932 94.8754 34.6525 94.9904 34.8253C95.0766 35.0269 94.9329 35.6893 95.1916 35.8334C95.4215 35.9774 95.1341 36.467 95.5365 36.467C95.9102 36.467 95.6802 37.3887 95.6802 37.3887C95.6802 37.3887 95.594 38.0799 95.8239 38.1087C96.0539 38.1663 95.9102 39.3184 95.9102 39.3184L95.5365 39.088Z" fill="white"/>
<path d="M92.4297 31.225C92.5734 31.4266 92.8608 31.5706 92.8608 31.7722C92.8608 31.9738 92.7746 32.1178 93.062 32.1466C93.3495 32.2043 93.5507 32.089 93.6369 32.3483C93.7231 32.5787 93.7231 32.9819 93.6944 33.1835C93.6369 33.3852 93.7519 33.6732 93.9818 33.6732C94.2118 33.6732 94.2692 33.7308 94.2692 33.8748C94.2692 34.0188 94.5567 33.3275 94.5567 33.3275C94.3267 33.1259 94.1255 32.6939 94.1255 32.6939C94.1255 32.6939 93.8956 32.0026 93.8956 31.9162C93.8956 31.8298 93.5507 31.7146 93.4069 31.6858C93.2632 31.6282 93.0333 31.1962 93.0333 31.1962L92.4297 31.225Z" fill="white"/>
<path d="M92.8903 30.7641C92.7466 30.5625 92.6029 30.4185 92.4017 30.3321C92.2004 30.2457 92.0567 30.1305 91.8843 30.1305C91.6831 30.1305 91.5106 29.9289 91.5968 29.6984C91.6831 29.468 91.4531 29.3528 91.4531 29.1512C91.4531 28.9496 91.5968 28.9496 91.8268 29.0936C92.0567 29.2376 92.028 29.2952 92.2004 29.5256C92.4016 29.7561 92.4879 30.0153 92.6891 29.9577C92.8903 29.9001 93.034 30.3897 93.2065 30.2457C93.4077 30.1017 93.3502 30.5913 93.3502 30.5913L92.8903 30.7641Z" fill="white"/>
<path d="M87.32 36.2654C87.5787 36.5246 85.8828 36.467 85.8828 36.2654C85.8828 36.0638 86.0265 35.4013 86.4577 35.5454C86.8888 35.6894 86.9463 34.6813 86.9463 34.6813C86.9463 34.6813 86.5726 34.7389 86.8888 34.5373C87.2337 34.3357 86.8888 34.0476 86.7451 33.9036C86.6014 33.7596 86.4577 33.5004 86.4577 33.5004H87.1188C87.4062 33.2988 87.4924 32.3771 87.4924 32.3771C88.0673 32.5787 88.3547 32.1755 88.3547 32.1755C88.3547 32.1755 88.4409 32.4635 88.6421 32.7227C88.8433 32.9531 88.1535 33.0684 88.4122 33.2124C88.6421 33.3564 88.7571 33.7884 88.6421 33.9324C88.5559 34.0764 88.0098 33.99 88.0098 33.7884C88.0098 33.5868 87.8086 34.0188 88.0098 34.2781C88.211 34.5085 87.7799 34.8541 87.6649 34.8541C87.5787 34.8541 86.9463 34.9405 87.4637 35.2573C87.9811 35.5454 88.5559 35.4013 88.5559 35.4013C88.5559 35.4013 88.9871 35.3437 89.1308 35.603C89.2745 35.8334 89.0733 35.891 88.8433 35.891C88.6134 35.891 87.4637 35.8046 87.4637 35.8046C87.4637 35.8046 87.1762 36.1214 87.32 36.2654Z" fill="white"/>
<path d="M84.2376 36.6974C84.4675 36.6398 85.0424 36.611 85.1574 36.755C85.2436 36.899 84.8125 37.1006 84.8125 37.1006L84.2376 37.187C84.0651 36.9566 84.0077 36.755 84.2376 36.6974Z" fill="white"/>
<path d="M90.4219 32.6363C90.7955 32.4347 91.6291 32.4347 91.5716 32.1466C91.5141 31.8586 92.0602 31.7722 92.0602 31.7722L92.2039 32.3483L92.6351 32.6363L92.6926 33.1835C92.6926 33.1835 92.8363 33.0971 92.3189 33.2411C91.8015 33.3852 92.1177 33.6156 92.1177 33.6156L90.968 33.6732L90.8243 33.1835L90.4219 32.6363Z" fill="white"/>
<path d="M88.5542 29.9865C88.8417 29.9865 88.468 31.1098 89.2153 30.9946C89.9914 30.9082 89.2728 31.3402 89.8477 31.369C90.4225 31.4266 90.2788 30.937 90.48 30.5913C90.6812 30.2457 90.5662 30.0441 90.2501 29.9577C89.9051 29.8713 89.9051 29.8713 89.8189 29.468C89.7327 29.0936 89.3303 28.9784 89.3303 28.9784L89.1866 28.4023L88.5542 28.7768L87.9219 29.612C87.9219 30.3033 88.2668 29.9865 88.5542 29.9865Z" fill="white"/>
<path d="M89.8203 34.1052L89.964 33.8172L90.2227 33.9324L90.079 34.2492L89.8203 34.1052Z" fill="white"/>
<path d="M89.6156 33.6443H89.3281V33.99H89.6156V33.6443Z" fill="white"/>
<path d="M89.5609 27.1638L89.6183 27.5959L89.3309 27.6247L89.2734 27.1926L89.5609 27.1638Z" fill="white"/>
<path d="M89.0374 31.6858H88.75V31.9162H89.0374V31.6858Z" fill="white"/>
<path d="M87.9741 31.6858L87.9453 31.3978L88.4339 31.369L88.4627 31.657L87.9741 31.6858Z" fill="white"/>
<path d="M84.0399 36.3806L83.7812 36.2654L83.925 35.9197L84.1837 36.0349L84.0399 36.3806Z" fill="white"/>
<path d="M82.5444 35.4877L82.5156 35.1997L83.0043 35.1421L83.033 35.4301L82.5444 35.4877Z" fill="white"/>
<path d="M74.2666 35.4013L73.2031 35.4301L73.2319 35.7181L74.2666 35.6893V35.4013Z" fill="white"/>
<path d="M72.5134 35.8046L72.3984 35.3725L72.6859 35.3149L72.7721 35.747L72.5134 35.8046Z" fill="white"/>
<path d="M72.3128 36.1214L72.2266 35.8334L72.3703 35.8046L72.4565 36.0638L72.3128 36.1214Z" fill="white"/>
<path d="M74.6981 35.2861L74.6406 35.6317L75.158 35.6893C75.158 35.6893 75.3879 35.891 75.3879 36.035C75.3879 36.179 75.7329 36.323 75.9053 36.323C76.1065 36.323 76.6239 35.9198 76.6239 35.9198C76.6239 35.9198 76.8538 35.2285 76.6814 35.2861C76.4802 35.3437 76.1065 35.6317 76.049 35.3437C75.9916 35.0557 75.4167 35.1997 75.4167 35.1997L74.6981 35.2861Z" fill="white"/>
<path d="M77.0824 34.7677C77.0824 34.9117 76.9962 35.1133 77.2836 35.1709C77.5711 35.2285 78.0884 34.9693 78.1459 35.2573C78.2034 35.5454 78.2034 35.747 78.5771 35.891C78.9507 36.035 79.2094 36.0926 79.4969 36.0926C79.7843 36.0926 80.4166 36.0062 80.4166 36.0062C80.4166 36.0062 81.1065 36.1214 81.2214 36.2366C81.7388 36.7839 82.0837 36.9279 82.2274 36.6687C82.3712 36.4382 82.17 35.891 82.1412 35.6894C82.0837 35.4878 81.4226 34.5661 81.1927 34.7677C80.9628 34.9693 80.9053 34.7677 80.4741 34.9117C80.043 35.0557 79.1232 34.9693 79.0944 34.7677C79.037 34.5661 78.3759 34.4797 78.3759 34.278C78.3759 34.0764 77.8872 33.846 77.9447 34.134C78.0022 34.4221 77.5998 34.5661 77.5136 34.4797C77.3699 34.3645 77.0824 34.7677 77.0824 34.7677Z" fill="white"/>
<path d="M88.063 28.5463L88.4079 27.4807C87.9193 27.3943 88.0342 26.847 88.0342 26.847C87.9768 26.415 87.3157 25.9253 87.0857 26.0693C86.8558 26.2134 86.942 25.0613 86.942 25.0613C86.942 25.0613 87.3731 24.7732 87.5743 24.9172C87.7756 25.0613 85.936 22.4978 85.5623 22.7283C85.1887 22.9587 84.3264 22.4978 84.3551 22.037C84.4126 21.605 82.6306 20.136 82.6306 20.136C82.6306 20.136 82.0557 19.7616 81.9695 20.0496C81.8832 20.3377 81.682 20.5393 81.9695 20.6833C82.2569 20.8273 82.1994 20.4529 82.5443 20.7697C82.8892 21.1153 83.4928 21.5474 83.2629 21.8354C83.033 22.1234 82.7455 22.2386 82.7455 22.2386L83.0904 22.6419H83.6078L83.694 23.4771C83.694 23.4771 84.2689 23.7651 84.4126 24.1108C84.5563 24.4564 84.5563 24.658 84.4126 24.8308C84.2689 25.0325 83.9815 25.3781 84.039 25.6949C84.0964 26.0405 84.4701 26.1845 84.4701 26.1845L84.8438 26.2422L85.1312 26.3862V27.0198C85.5049 26.9334 86.1372 27.4519 86.0797 27.7975C86.0222 28.1431 86.1659 27.9415 86.6546 28.2871C87.1432 28.6328 86.9995 28.6904 87.3157 28.9208C87.6318 29.1224 87.9193 28.9784 88.063 28.5463Z" fill="white"/>
<path d="M80.1869 21.9218C80.1294 21.7202 80.0431 21.0577 80.3306 21.0865C80.618 21.1441 80.4168 21.0865 80.7617 21.2305C81.1066 21.3746 81.1354 21.0001 81.1354 21.0001H81.6528L82.3138 21.5474L82.2276 21.9794L81.739 22.037C81.509 21.6626 81.0204 21.8066 81.1066 22.1234C81.1929 22.469 80.8767 23.1027 80.6755 23.1315C80.4743 23.1891 79.8707 23.1891 79.8994 22.9011C79.9857 22.6131 80.1869 21.9218 80.1869 21.9218Z" fill="white"/>
<path d="M79.811 20.6257V20.2512C79.811 20.2512 79.7536 19.8768 79.5236 19.8768C79.2937 19.8768 78.8625 19.5888 78.9488 19.3872C79.035 19.1855 78.144 18.9839 78.144 18.9839C78.144 18.9839 77.3392 18.2063 77.6266 18.2927C77.914 18.3791 77.7703 17.947 77.7703 17.947C77.7703 17.947 77.1954 18.0334 77.0517 18.0046C76.908 17.947 76.9655 17.515 76.9655 17.515C76.9655 17.515 76.3906 17.371 76.3906 17.515C76.3906 17.659 76.5918 17.659 76.6781 17.947C76.7643 18.2351 76.7355 18.7247 77.1667 18.8111C77.5978 18.8975 77.6841 19.0127 77.7416 19.2143C77.799 19.416 78.3164 19.4448 78.3164 19.4448L78.6901 19.6464L79.811 20.6257Z" fill="white"/>
<path d="M74.6424 15.6716L74.4987 15.2684L74.125 15.182V15.614L74.6424 15.6716Z" fill="white"/>
<path d="M74.496 13.6267C74.0073 13.2523 75.157 13.9147 75.157 13.9147C75.5307 13.9147 75.7894 14.2028 75.7894 14.3468C75.7894 14.4908 76.3068 14.4332 76.3068 14.4332L76.3642 14.0875L75.9906 13.5979L75.6457 13.3675C75.6457 13.3675 75.1283 13.3099 75.1283 13.1659C75.1283 13.0507 74.6972 13.7707 74.496 13.6267Z" fill="white"/>
<path d="M83.2938 13.9147C83.1501 14.3467 83.0926 14.9228 82.8627 14.9228C82.6327 14.9228 82.719 15.5564 82.719 15.5564C82.719 15.5564 83.3513 15.5564 83.5238 15.614C83.725 15.6717 83.725 16.1613 83.725 16.1613C84.4435 16.1037 84.731 17.083 84.6447 17.3422C84.5585 17.5726 84.9322 17.5726 84.9322 17.5726C84.9322 17.5726 84.9322 18.3503 84.8459 18.5519C84.7597 18.7535 85.4783 18.8975 85.6508 19.1855C85.852 19.4736 85.5645 20.4529 85.4208 20.5105C85.2771 20.5681 85.7945 20.7121 85.7657 20.9425C85.7082 21.1729 85.9094 20.9425 85.9669 21.3457C86.0244 21.7202 86.1106 22.5554 86.1106 22.5554L86.7717 22.613C86.858 21.9794 88.0939 21.9506 88.2951 22.037C89.0999 22.325 89.7323 23.5923 89.7323 23.8803C89.7323 24.1684 89.2149 24.226 89.2149 24.226L89.3011 25.6373C90.1059 25.8677 90.7958 27.0486 90.6808 27.2502C90.5946 27.4518 91.2556 27.3942 91.2556 27.3942C91.3419 26.5302 92.1754 26.8182 92.2042 27.1062C92.2616 27.3942 92.4054 28.0279 92.4054 28.0279L92.6353 28.4599L92.9802 28.8056L93.4976 28.748L93.6413 29.036L94.2737 29.1224C94.2737 29.1224 94.791 29.6984 94.8485 29.8424C94.906 29.9865 95.6246 29.9289 95.797 29.9865C95.9982 30.0441 96.2857 30.1881 96.3144 30.4185C96.3719 30.6489 96.6593 31.0521 96.6593 31.0521C96.6593 31.0521 97.2342 31.1962 97.2917 31.3978C97.3492 31.5994 97.5791 32.0314 97.5791 32.0314L98.0677 32.4347L98.1252 32.8667L98.6426 32.9243L98.7863 33.5004L99.6486 33.4427L100.137 33.0971C100.77 32.7515 101.201 32.3195 101.229 32.1178C101.287 31.9162 101.373 31.1962 101.862 31.3402C102.35 31.4842 102.006 30.2745 102.006 30.2745C102.006 30.2745 101.344 29.7848 101.373 29.5544C101.431 29.324 100.712 28.8344 100.741 28.6327C100.798 28.4311 100.108 28.0567 100.166 27.8551C100.223 27.6535 99.8211 27.135 99.8211 27.135L99.1025 26.4438L99.0163 26.0117L98.4414 25.9541L97.2917 24.5428L97.3492 24.1396L97.0043 24.082V23.5347L96.6593 23.3331L96.142 23.2755L95.0785 22.1234L94.9922 21.5761H94.4749L94.5611 20.5681C94.906 20.136 94.7048 19.3008 94.7048 19.3008C94.7048 19.3008 94.0437 19.6464 93.6988 19.5024C93.3539 19.3584 93.8425 19.0127 93.8425 19.0127V18.6383L93.5551 18.3503C93.5551 18.3503 92.7503 18.4367 92.6928 18.2927C92.6353 18.1487 92.4916 17.515 92.4916 17.515L92.4341 16.6797L92.0892 16.5357L92.0317 16.2477L91.5143 16.3053V15.7293L91.2269 15.6428L90.9395 15.4988L90.882 14.9228L89.8185 14.8652L89.4736 14.3755L89.0999 13.7995L87.8927 13.7131L87.6053 13.4251L87.1167 13.3387L86.7717 13.1946L86.628 13.4251L85.7082 13.4827L85.6508 13.7707C85.2484 13.9723 83.3513 13.7707 83.2938 13.9147Z" fill="white"/>
<path d="M88.3254 12.6474C88.2392 12.273 89.2739 11.9273 89.5326 12.2154C89.7626 12.5034 90.4524 12.561 90.5386 14.0011C90.5674 14.5196 89.6763 13.4539 89.6763 13.4539L88.9578 13.2235C88.5553 13.137 88.3541 12.9066 88.3254 12.6474Z" fill="white"/>
<path d="M74.2978 13.2523L74.0391 13.137L74.2403 12.6762L74.4989 12.8202L74.2978 13.2523Z" fill="white"/>
<path d="M71.8262 8.47107L71.1939 7.83742V7.29017L70.9927 7.08855L70.7915 6.3973L70.1591 6.19568L69.5268 6.4261L68.8657 6.85813L68.1471 6.94454L67.7734 7.37658L69.2968 7.52059L69.5842 8.01023L70.6765 8.09664L71.3951 8.8167C72.0562 9.10472 72.1999 8.8167 71.8262 8.47107Z" fill="white"/>
<path d="M71.7377 6.08047C71.6227 5.64844 71.0191 6.62772 71.6514 6.80053C72.2838 7.00215 72.8874 6.80053 72.8874 6.80053L73.0311 6.51251L75.4168 6.57012C75.618 6.3685 75.7042 6.08047 75.7042 6.08047C75.7042 6.08047 76.279 5.87886 76.509 5.99407C76.7389 6.08047 76.5665 5.30281 76.3078 5.41802C76.0779 5.50443 75.5892 5.47562 75.5892 5.47562H74.7269C74.6694 5.12999 73.9221 5.27401 73.8646 5.47562C73.8359 5.64844 73.5485 5.70604 73.5485 5.70604L72.4562 5.79245C72.3413 6.08047 71.7951 6.28209 71.7377 6.08047Z" fill="white"/>
<path d="M66.9959 14.2891C67.7432 14.5195 68.0019 14.3467 68.0594 14.1451C68.1169 13.9435 68.1456 13.9147 68.433 13.8571C68.7205 13.7995 68.3756 13.2234 68.0881 13.281C67.8007 13.3386 67.5133 13.1946 67.4558 12.9354C67.3983 12.705 66.9384 12.0713 66.8809 12.561C66.8234 13.0506 66.536 13.0506 66.5935 13.3962C66.6797 13.7131 66.8234 14.2315 66.9959 14.2891Z" fill="white"/>
<path d="M61.5084 14.8364C61.4797 14.6636 62.457 14.6348 62.6007 14.7788C62.7444 14.9228 62.6582 15.182 63.0893 15.182C63.5204 15.182 63.3192 15.4701 63.2905 15.6141C63.233 15.7581 62.7731 15.7005 62.7156 15.5565C62.6582 15.4124 61.9396 15.3548 61.9396 15.3548C61.9396 15.3548 61.5659 15.0668 61.5084 14.8364Z" fill="white"/>
<path d="M77.2537 5.01476L77.3686 5.12997L77.4549 5.04357L77.9435 4.64033L77.7423 4.40991L77.3686 4.72674L77.1387 4.46752L76.9375 4.69794L77.2537 5.01476Z" fill="white"/>
<path d="M75.1318 3.89147L75.1893 3.83386L75.7354 3.48823L75.5629 3.25781L75.1318 3.54584L74.8156 3.34422L74.6719 3.60344L75.0455 3.83386L75.1318 3.89147Z" fill="white"/>
<path d="M73.4024 13.7995L73.7186 14.2891L73.9485 14.1163L73.6323 13.5979L73.5749 13.5403H73.5174L73.0287 13.4827L73 13.7707L73.4024 13.7995Z" fill="white"/>
<path d="M57.7667 27.0774L57.8242 27.6246H58.5427C58.8302 27.6246 58.3128 27.279 58.3128 27.279C58.3128 27.279 57.7379 27.3366 57.7667 27.0774Z" fill="white"/>
<path d="M58.6875 27.1062L58.86 26.8758L59.1474 27.1062L58.9749 27.3366L58.6875 27.1062Z" fill="white"/>
<path d="M49.9766 18.0047L50.1778 17.803L50.4652 18.0911L50.264 18.2927L49.9766 18.0047Z" fill="white"/>
<path d="M63.459 80.8228L63.6602 81.0244L63.8902 80.794L64.0339 80.65L63.8614 80.5347L63.3728 80.3043L63.2578 80.5635L63.5452 80.7076L63.459 80.8228Z" fill="white"/>
<path d="M59.6984 77.3089L60.0433 77.5393L60.2158 77.3089L60.0146 77.1648L60.1583 77.0496L59.9858 76.8192L59.6984 77.0784L59.5547 77.1937L59.6984 77.3089Z" fill="white"/>
<path d="M95.7099 67.8329C95.6524 67.5737 95.365 67.4872 95.3362 67.4872L95.25 67.7753C95.2787 67.7753 95.3075 67.8041 95.3362 67.8329L95.3937 68.0921C95.365 68.1209 95.3362 68.1497 95.3362 68.1785L95.5374 68.3801C95.6811 68.1497 95.7386 68.0057 95.7099 67.8329Z" fill="white"/>
<path d="M96.1396 66.9112L95.6797 66.8824L95.7084 66.4503L96.1683 66.5079L96.1396 66.9112Z" fill="white"/>
<path d="M107.206 63.1381C107.408 63.0229 107.666 62.7636 107.637 63.3109C107.609 63.8581 107.379 63.6853 107.206 63.8581C107.034 64.031 106.919 63.3109 107.206 63.1381Z" fill="white"/>
<path d="M109.65 61.0643V61.0066C109.65 60.9202 109.621 60.805 109.563 60.6898L109.305 60.8338C109.333 60.8914 109.333 60.9778 109.362 61.0355C109.362 61.1219 109.391 61.2083 109.448 61.2659C109.506 61.2947 109.563 61.3235 109.65 61.2947L109.592 61.0066C109.592 61.0355 109.621 61.0354 109.65 61.0643Z" fill="white"/>
<path d="M109.016 61.2947C109.102 61.5827 109.188 61.8708 109.188 61.8996L109.447 61.7844C109.447 61.7844 109.332 61.4963 109.274 61.2083L109.016 61.2947Z" fill="white"/>
<path d="M107.951 62.4468L107.663 62.418C107.634 62.6484 107.692 62.9364 107.922 62.9652L107.979 62.6772C107.979 62.6772 107.951 62.562 107.951 62.4468Z" fill="white"/>
<path d="M106.719 56.6575C106.69 56.5711 106.662 56.4847 106.575 56.4559C106.374 56.3695 106.001 56.5135 105.828 56.6287L106.001 56.8592C106.173 56.7439 106.432 56.6863 106.46 56.7151C106.46 56.7151 106.46 56.7151 106.46 56.6863L106.719 56.6575Z" fill="white"/>
<path d="M93.4692 41.133C93.268 41.3346 92.8369 41.421 92.8369 41.421L92.6932 41.9683L92.4632 42.1699C92.4632 42.1699 92.5207 42.3139 92.4632 42.6595C92.4058 43.0052 91.9746 43.2068 91.9746 43.2068L91.7734 43.4372C91.7734 43.4372 90.6237 43.4948 90.48 43.4372C90.0488 43.2356 90.3363 42.6595 90.6237 42.7171C90.9111 42.7747 90.5662 41.8819 90.5662 41.8819L90.9399 41.8243C90.9399 41.8243 90.9974 40.9602 91.1411 40.9602C91.2848 40.9602 91.0836 40.6722 90.9111 40.5282C90.7099 40.3841 90.48 39.8945 90.2788 39.9521C90.0776 40.0097 89.3302 39.9521 89.3302 39.9521L89.1865 40.2401L88.6692 40.3265C88.6692 40.3265 88.7266 40.701 88.6117 40.8162C88.3242 41.1618 87.232 41.8819 87.6919 40.6722L87.8356 40.3841V39.9521L86.9733 39.8945C86.9733 39.8945 86.5422 39.7505 86.5422 39.5489C86.5422 39.3473 86.4847 39.1168 86.4847 39.1168L85.4787 37.9935L84.2715 37.8495L84.1852 37.6191L83.4667 37.5327C82.6044 37.1007 81.8283 37.4751 81.972 38.224C82.1157 38.944 82.3457 39.232 81.8858 39.232C81.3972 39.232 81.3109 38.8576 81.3109 38.8576C81.3109 38.8576 80.9373 38.7136 80.9373 38.9152C80.9373 39.1168 80.7936 39.4913 80.9373 39.6929C81.081 39.8945 80.7361 40.1825 80.5924 40.0385C80.4487 39.8945 80.075 39.4625 80.1612 39.3185C80.2475 39.1744 79.5001 38.2528 80.2475 38.1088C81.0235 37.9647 80.19 37.5327 80.4774 37.4175L80.8511 37.2159H81.2247L81.4547 37.0143L80.8223 36.9279L80.4487 36.8703L79.7301 36.8126C79.0115 37.3023 78.8678 37.8783 78.8678 37.8783C78.4941 38.5984 77.5744 37.5903 77.9193 37.1871C78.2642 36.7838 76.8558 37.1295 76.6258 37.3311C76.3959 37.5327 75.6773 37.4175 75.6773 37.4175C75.5336 37.8495 74.8725 37.3599 75.045 37.0719C75.2462 36.7838 75.2462 36.5822 75.2462 36.5822L75.0162 36.5246L74.7288 37.0719C74.0677 37.0719 73.8665 37.4463 74.0102 37.7055C74.1539 37.9359 73.809 37.6479 73.7228 37.9935C73.6366 38.3392 73.7803 38.3392 74.0677 38.4832C74.3551 38.6272 73.924 38.6272 74.1252 38.8576C74.3264 39.088 74.9013 38.8576 74.5563 39.2032C74.2114 39.5489 73.5503 39.4049 73.5503 39.4049C73.4928 39.8369 72.6018 39.7505 72.4868 39.6065C72.4006 39.4625 71.682 38.5984 71.682 38.5984L70.7623 38.5408C70.676 37.8495 71.1934 38.1952 71.3946 37.6767C71.5958 37.1295 71.682 36.2654 71.682 36.2654C71.682 36.2654 70.906 36.2078 70.8772 36.467C70.8197 36.6974 70.3599 36.8703 70.3599 36.8703C70.3599 36.8703 69.9862 37.0143 70.1299 37.2159C70.2736 37.4175 69.8425 37.5039 69.8425 37.5039C69.8425 37.5039 69.9287 37.8207 69.785 37.9359C69.4113 38.3392 68.4341 37.9935 68.2904 37.8495L67.7155 37.6191L67.1406 37.2447L66.4795 37.5327L66.2783 37.7343H65.5598L65.5023 38.3104L66.7957 38.4544L66.8819 39.6641L66.3646 39.4913H66.0197L65.8759 39.2032L65.5885 39.1456V40.2113L65.8759 40.4418L66.1059 40.6722L66.5945 40.7298L66.6807 41.3058L67.888 41.3634L68.0317 41.5939L68.7502 41.6515L70.1299 43.0628L70.0437 43.4948L69.8137 43.6388C69.9 43.9845 69.1814 43.7828 69.1814 43.7828V44.0709L69.5263 44.1285L69.8712 44.3301L70.3599 43.4948C70.8772 43.1492 71.1359 43.6388 71.1647 43.9268C71.2221 44.2149 70.9347 44.1573 70.9347 44.1573V44.8485L71.2221 44.9349C71.7108 45.511 71.0209 45.8566 71.0209 45.8566L70.8772 46.3463C70.7335 46.7783 70.2161 46.6919 70.2161 46.6919L70.0149 46.9799L69.4401 47.1239L70.5611 47.2679C70.676 46.8647 70.9635 46.7783 71.1072 46.9799C71.2509 47.1815 71.2509 47.5271 71.2509 47.5271L71.5383 47.5848L71.4808 48.132L71.7683 48.2184V49.7737L72.1132 50.1482C72.688 49.9178 72.688 50.2922 72.4006 50.4938C72.1132 50.6954 72.3144 51.5595 72.3144 51.5595L72.0844 51.7899V52.1931L71.797 52.3948V52.942C71.3084 52.7116 70.7335 52.798 70.5898 52.942C70.1587 52.654 69.2389 52.7404 69.2389 52.9996C69.5263 53.374 68.894 53.4893 68.894 53.4893L68.549 53.8637C68.779 54.3533 68.3191 54.4109 68.3191 54.4109V55.3326L67.7442 55.8799L67.8017 57.1472C67.8017 57.4928 68.5203 57.5216 68.664 57.3488C68.8077 57.1472 69.3826 57.752 69.3826 57.752H69.8137L69.9 56.8879L69.6125 56.7439V55.3326L70.1012 54.7854C70.676 54.5837 70.4748 56.0527 70.4748 56.1967C70.5323 56.7439 70.7623 56.6863 70.9922 56.5711C71.4808 56.3695 71.0784 57.1184 70.7048 57.0608C70.3311 57.0031 70.5611 57.5504 70.5611 57.5504L70.791 57.6368L70.3599 57.9824L69.9862 58.4145L69.4976 58.2705L68.9227 58.2129L68.7215 57.8672L68.3766 57.8096L68.3191 58.5009L68.0892 58.7889L67.5143 59.3649C68.2904 59.3649 67.4281 59.9122 67.2269 59.9122C67.658 60.0562 67.1694 60.4882 66.0771 60.1426V60.4882L65.7035 60.5458L66.0484 60.9203L66.4221 60.9779L66.2783 61.8132C66.2783 62.4468 64.6975 62.0148 64.5538 61.8708L64.4963 62.7348L64.2088 62.7924L64.2663 63.3685L64.2088 64.2038L64.7262 64.1173V64.463L66.0197 64.5206L67.888 62.5332L68.9802 62.3028C69.0664 61.8132 69.555 62.3892 69.555 62.3892C70.0437 62.3316 70.1299 62.6772 70.1299 62.6772L70.7623 62.7636C71.2796 62.9076 70.9635 62.9653 70.9922 63.1669C71.0497 63.4549 71.2796 63.3685 71.2796 63.3685L71.3659 62.7348L71.6533 62.7924L71.3659 62.4468L70.8485 62.2164L70.2736 61.986C69.9 61.4387 70.3599 61.5539 70.7623 61.6115H71.3946C71.3946 61.6115 72.1132 62.5908 72.1132 62.8212C72.1132 63.0517 72.4581 63.1093 72.4581 63.1093L72.8892 63.0517L73.033 63.3973H73.4641L73.6078 63.6853H74.4701L74.5276 63.2533L73.7228 63.1093L73.6653 62.6196L73.0904 62.4756C72.8892 61.6403 73.2342 61.4099 73.4641 61.7844L73.7515 61.842L73.6653 61.1219L74.0102 61.0355L73.924 60.0274L73.6366 59.941V59.5954L74.8438 59.653C74.7575 59.0193 74.9013 58.7313 74.9013 58.7313H75.2462L75.3037 58.9617L76.7696 59.1057L77.8043 57.9248C77.7468 57.8384 77.9193 57.7808 77.8043 57.6656C77.6606 57.5216 77.4594 57.6656 77.2294 57.5216C76.9995 57.3776 77.2294 56.5423 77.172 56.3695C77.1145 56.1679 77.9768 55.8799 77.833 56.3119C77.6893 56.7439 77.833 56.9455 77.833 56.9455C78.4654 56.3695 78.9828 57.0032 78.9253 57.1472C78.8678 57.2912 79.2702 57.4352 79.5001 57.2912C79.7301 57.1472 80.0175 57.7232 79.9313 58.0112C79.8451 58.2993 78.9828 58.2417 78.9253 57.9536C78.8678 57.6656 78.7241 57.752 78.6378 57.896C78.5516 58.04 78.1205 58.1264 77.8618 57.9824C77.8043 57.9536 77.8043 57.9248 77.7756 57.896L76.7408 59.0769H76.7983C77.3731 59.4226 77.0857 59.8546 76.8845 59.941C76.6833 60.0274 76.3671 60.0274 76.3671 60.0274L76.2809 60.229L75.045 60.3154L74.9587 60.8051C74.3264 60.7187 74.0964 61.3811 74.2402 61.7267C74.3839 62.0724 74.2402 62.3604 74.2402 62.3604L74.7575 62.5908L75.4186 62.3892C75.5049 61.8996 75.936 61.8132 76.3384 61.5251C76.7121 61.2371 77.3444 62.0724 77.1432 62.4468C76.942 62.8212 76.942 62.9941 76.942 62.9941L76.9995 63.4261L76.5109 63.6277L76.1372 63.8293L76.0797 64.0597H74.7863L74.5563 64.2902L73.924 64.3478L73.7228 64.6358L73.2916 64.6934C73.2916 64.6934 72.5731 65.039 72.8605 65.4135C73.1479 65.8167 71.6533 65.7591 71.3371 65.2118C71.2509 65.7015 70.7048 65.2694 70.7048 65.2694L70.1874 65.1254L70.1299 64.4054C70.0437 63.9157 69.1239 63.9157 69.1814 64.2614C69.2389 64.607 67.4568 64.4054 67.4568 64.4054L66.8819 64.6934L66.3646 65.0102L66.3071 65.2406L65.4448 65.3271L65.0711 65.5287L64.9274 65.2406H64.5538L64.1801 65.7879C63.1741 65.8455 62.2256 66.4215 62.3118 66.652C62.398 66.8824 61.9381 67.1416 61.9381 67.1416L61.507 67.2856L61.2196 67.7177L60.6447 67.9193L60.5585 68.9274L60.2711 69.129V69.561L59.9261 69.6474V69.8778L59.4375 69.9354L59.7249 70.6555L60.0986 70.8571C60.7597 70.9435 60.4723 71.7788 60.4723 71.7788L60.8459 71.8364L61.0471 72.3836L61.4208 73.1613C61.5645 73.7374 61.9956 73.5933 62.1968 73.5645C62.398 73.5069 62.5705 74.1406 62.5705 74.1406L64.4675 74.1982C64.4675 74.1982 64.3813 74.3998 64.6975 74.4862C65.0424 74.5726 67.2269 74.6878 67.3131 74.5438C67.2269 74.1118 68.5203 73.9966 69.0377 74.3998C69.555 74.7742 70.2736 74.5438 70.2736 74.5438L70.9922 75.4079L71.4808 76.4736L72.2856 76.704L72.8605 76.848L73.0617 77.6833L73.4928 77.7409L73.6366 78.2881C74.1539 78.6626 73.4928 79.4978 73.4928 79.4978V80.5635L73.8665 80.7652L73.809 81.1684L74.4414 81.802L75.1599 81.8596L76.9707 83.7894L78.4079 84.2214L78.6378 84.9991L79.0115 84.9415L79.2989 84.7111L80.4487 84.6535L81.0235 84.1062L81.6559 84.0198L86.9733 79.4978L86.4847 79.2098V78.1441C87.347 77.5105 87.4045 76.3872 86.5709 76.3008C85.9673 76.2144 86.226 75.5807 86.8009 75.4655L87.1458 75.3215V74.8895L88.238 73.8814V73.1037L85.8523 71.1163C84.7888 70.7419 85.8523 68.4089 86.5709 68.4377C87.2895 68.4953 86.5134 64.8374 86.5134 64.8374L86.1398 64.6358L86.226 63.4549H85.7086L84.8463 64.5782L84.6164 65.3559C84.5302 66.3639 81.5696 66.1911 81.4259 66.0471C81.2822 65.9031 80.2762 65.4711 80.2762 65.4711C80.2762 65.4711 79.5001 64.8374 79.3564 65.039C79.2127 65.2406 78.5516 64.8086 78.5516 64.9526C78.5516 65.0966 77.9193 64.607 77.9193 64.607L76.9707 64.2614L77.6893 64.1173L77.5456 63.5413L78.7816 64.175C78.9253 64.3766 79.5576 64.319 79.5576 64.319L79.7588 64.5494C79.7588 64.5494 80.1325 64.4918 80.3912 64.7798C80.6211 65.0678 81.8858 64.8374 81.8858 64.8374L82.2307 65.1254L82.7481 65.3271L84.2427 65.3847L84.3002 64.463L84.5877 64.175L84.5302 63.5989L84.8751 63.3109V62.8212L85.1625 62.7348L85.22 61.6691L85.4499 61.6115V59.2785L84.7314 58.5873C84.6739 58.8177 83.9266 58.8177 83.9266 58.8177C83.9266 58.8177 83.7254 59.1633 83.5816 59.1633C83.4379 59.1633 83.7829 59.5954 83.6679 59.8834C83.5816 60.1714 83.1792 60.1714 83.1792 60.1714L82.4607 60.373L82.2595 60.6035H81.4834L81.3972 59.9698L82.2595 59.7394L82.7481 59.509L82.978 59.0193C83.0355 58.5297 83.6104 58.5873 83.6104 58.5873C83.6104 58.5873 84.7026 57.6656 84.7601 57.2336C84.8176 56.8015 85.1913 55.5918 85.8523 55.5918H87.0883C87.5769 55.3902 87.4332 54.7566 87.4332 54.7566L88.0656 54.6702L88.1518 55.0158C88.1518 55.0158 89.0141 55.1022 89.1003 54.9582C89.1865 54.8142 89.3877 54.4685 89.6177 54.6125C89.8476 54.7566 90.6237 54.2669 90.6237 54.2669C90.6812 53.9213 91.8596 54.0653 91.8596 54.0653L92.0034 53.6333C92.0034 53.6333 91.1985 52.51 91.0548 52.51C90.9111 52.51 90.1351 51.8187 90.0488 52.0779C89.2728 51.8763 89.3302 50.8106 89.3302 50.8106L89.0428 50.1194C89.0428 49.7161 88.3242 48.9097 88.1805 48.9961C87.462 48.4488 87.9793 47.844 88.1805 47.7864C88.3817 47.7288 88.8416 47.0663 88.8416 47.0663L89.0716 46.3751L89.8764 46.1446L89.9626 45.511L89.5315 45.4534C89.5315 45.4534 90.0201 44.5893 90.25 44.5893C90.48 44.5893 92.0608 44.5893 92.2046 44.5029C92.3483 44.4165 92.6357 43.6388 92.6357 43.4948C92.6357 43.3508 93.0094 43.2932 93.1531 43.2644C93.2968 43.2068 93.6417 42.8324 93.7279 42.6307C93.9866 42.1411 93.6704 40.9314 93.4692 41.133Z" fill="white"/>
<path d="M66.9915 58.6449C67.049 58.5873 67.1352 58.8753 67.2789 58.8177C67.4226 58.7889 67.4801 59.0769 67.3364 59.0769C67.1927 59.0769 67.1927 59.2497 67.1927 59.3361C67.1927 59.4225 67.1927 59.5953 67.0777 59.7105C66.9627 59.8258 66.8765 59.7393 66.7328 59.6817C66.5891 59.5953 66.5316 59.5953 66.3304 59.5953C66.1579 59.5953 66.3016 59.8834 66.3016 59.8834C66.3016 59.8834 65.5543 59.8546 65.698 59.7393C65.8418 59.6241 65.9855 59.5953 65.8705 59.5089C65.7555 59.4225 65.8705 59.3649 65.8705 59.2209C65.8705 59.0769 66.2154 59.1345 66.1292 59.0481C66.0142 58.9329 66.1292 58.5296 66.3016 58.7601L66.4166 58.5008C66.3016 58.3856 66.3879 58.3568 66.1579 58.2704C65.9567 58.184 66.1292 57.752 66.1292 57.752L66.1579 57.464C66.2154 57.0895 66.934 57.0607 66.9915 57.3775C67.0202 57.6944 66.9915 57.9248 66.9915 57.9248L67.1927 58.0112C67.1927 58.0112 67.1639 58.2416 66.9915 58.2416C66.819 58.2416 66.9915 58.3568 66.8765 58.472L66.9915 58.6449Z" fill="white"/>
<path d="M64.6406 59.0193C64.7556 58.7889 64.9855 57.8672 65.273 58.1552C65.5604 58.4433 65.7329 58.1552 65.7329 58.1552C65.7329 58.1552 65.8766 58.2992 65.7903 58.5873C65.7329 58.8753 65.6466 59.1633 65.4742 59.2209C65.3017 59.2497 65.158 59.3649 64.9281 59.3937C64.7556 59.4225 64.6406 59.0193 64.6406 59.0193Z" fill="white"/>
</g>
<defs>
<clipPath id="clip0_26_34216">
<rect width="134" height="114" fill="white"/>
</clipPath>
</defs>
</svg>
