<svg width="15" height="20" viewBox="0 0 15 20" fill="none" xmlns="http://www.w3.org/2000/svg">
<path d="M7.61545 0C7.72285 0.0939015 7.84636 0.17737 7.93229 0.286921C9.92998 2.75966 11.8042 5.31065 13.3508 8.07553C13.8448 8.96238 14.2744 9.88053 14.6235 10.83C15.2142 12.442 15.0907 14.0278 14.3872 15.5616C13.2809 17.9874 11.3477 19.4585 8.64651 19.9019C4.67261 20.554 0.838328 17.883 0.102619 14.0278C-0.160518 12.6298 0.102619 11.3308 0.661114 10.0527C1.3646 8.44592 2.27216 6.94871 3.28174 5.51932C4.43632 3.88126 5.64461 2.27972 6.82604 0.662527C6.92807 0.526892 6.99788 0.370389 7.10528 0.234754C7.1751 0.146069 7.27713 0.0782513 7.36305 0C7.45434 0 7.52952 0 7.61545 0Z" fill="#1A8400"/>
</svg>
