<svg width="133" height="133" viewBox="0 0 133 133" fill="none" xmlns="http://www.w3.org/2000/svg">
<path d="M66.5 8.3125C34.367 8.3125 8.3125 34.367 8.3125 66.5C8.3125 98.633 34.367 124.688 66.5 124.688C98.633 124.688 124.688 98.633 124.688 66.5C124.688 34.367 98.633 8.3125 66.5 8.3125ZM85.2161 67.3962L56.8497 88.0346C56.6942 88.1463 56.5109 88.213 56.3199 88.2274C56.129 88.2417 55.9377 88.2032 55.7673 88.1159C55.5968 88.0287 55.4537 87.8961 55.3536 87.7328C55.2536 87.5695 55.2005 87.3818 55.2002 87.1903V45.9396C55.1996 45.7477 55.2521 45.5594 55.3519 45.3955C55.4518 45.2316 55.595 45.0986 55.7659 45.0112C55.9367 44.9238 56.1283 44.8853 56.3197 44.9002C56.511 44.915 56.6944 44.9826 56.8497 45.0953L85.2161 65.7207C85.3501 65.8155 85.4594 65.941 85.5349 66.0868C85.6103 66.2326 85.6497 66.3943 85.6497 66.5584C85.6497 66.7226 85.6103 66.8843 85.5349 67.0301C85.4594 67.1759 85.3501 67.3014 85.2161 67.3962Z" fill="#E3E3E3" fill-opacity="0.93"/>
</svg>
