<svg width="255" height="91" viewBox="0 0 255 91" fill="none" xmlns="http://www.w3.org/2000/svg">
<path d="M0.0132351 1.88022C3.82485 1.17878 12.1363 0.530273 19.9316 0.530273C28.8386 0.530273 34.2384 1.16554 39.1352 3.61398C44.0453 5.90359 47.6187 10.4431 47.6187 16.5841C47.6187 21.8912 44.7203 27.0528 37.4015 29.8056V30.0438C45.1174 32.1217 49.7363 37.8524 49.7363 45.33C49.7363 51.2724 46.8644 55.9178 42.6822 59.0677C37.9441 62.6146 30.1091 64.719 16.5964 64.719C8.97318 64.719 3.3881 64.2293 0 63.6866V1.88022H0.0132351ZM16.7288 25.2793H20.1169C27.2504 25.2793 30.7047 22.7515 30.7047 18.6884C30.7047 14.9959 27.8989 12.6533 22.2477 12.6533C19.4154 12.6533 17.8272 12.8121 16.7288 13.0239V25.2793ZM16.7288 52.1724C17.9728 52.3577 19.4154 52.3577 21.5859 52.3577C27.1975 52.3577 31.9885 50.121 31.9885 44.5756C31.9885 39.242 27.1048 37.1906 20.7654 37.1906H16.7288V52.1724Z" fill="#86D401"/>
<path d="M85.232 1.01855V64.0293H68.3577V1.01855H85.232Z" fill="#86D401"/>
<path d="M165.461 31.8958C165.461 52.1583 153.285 65.0622 133.843 65.0622C114.309 65.0622 103.575 50.4113 103.575 32.9017C103.575 14.5583 115.593 8.73119e-06 134.889 8.73119e-06C155.151 -0.013226 165.461 15.0215 165.461 31.8958ZM121.429 32.5973C121.429 44.4424 126.591 51.6951 134.651 51.6951C142.856 51.6951 147.594 43.7939 147.594 32.4385C147.594 21.5992 142.737 13.3671 134.558 13.3671C126.591 13.3539 121.429 21.0036 121.429 32.5973Z" fill="#86D401"/>
<path d="M237.088 41.4778C236.876 34.331 236.717 25.9137 236.744 16.0538H236.492C234.547 24.4447 231.886 33.8413 229.848 40.7499L223.615 62.7196H210.406L205.126 40.8161C203.511 34.0399 201.579 24.7094 200.096 16.0406H199.911C199.554 24.9211 199.236 34.3178 198.958 41.4646L198.005 64.0166H182.468L186.346 1.00586H209.056L213.212 17.9728C214.946 24.9873 216.812 33.3252 218.122 41.0675H218.453C220.2 33.3781 222.304 24.4711 224.157 17.8405L228.882 1.01909H251.09L254.24 64.0299H237.842L237.088 41.4778Z" fill="#86D401"/>
<path d="M0.0132351 1.88022C3.82485 1.17878 12.1363 0.530273 19.9316 0.530273C28.8386 0.530273 34.2384 1.16554 39.1352 3.61398C44.0453 5.90359 47.6187 10.4431 47.6187 16.5841C47.6187 21.8912 44.7203 27.0528 37.4015 29.8056V30.0438C45.1174 32.1217 49.7363 37.8524 49.7363 45.33C49.7363 51.2724 46.8644 55.9178 42.6822 59.0677C37.9441 62.6146 30.1091 64.719 16.5964 64.719C8.97318 64.719 3.3881 64.2293 0 63.6866V1.88022H0.0132351ZM16.7288 25.2793H20.1169C27.2504 25.2793 30.7047 22.7515 30.7047 18.6884C30.7047 14.9959 27.8989 12.6533 22.2477 12.6533C19.4154 12.6533 17.8272 12.8121 16.7288 13.0239V25.2793ZM16.7288 52.1724C17.9728 52.3577 19.4154 52.3577 21.5859 52.3577C27.1975 52.3577 31.9885 50.121 31.9885 44.5756C31.9885 39.242 27.1048 37.1906 20.7654 37.1906H16.7288V52.1724Z" fill="#86D401"/>
<path d="M85.232 1.01855V64.0293H68.3577V1.01855H85.232Z" fill="#86D401"/>
<path d="M165.461 31.8958C165.461 52.1583 153.285 65.0622 133.843 65.0622C114.309 65.0622 103.575 50.4113 103.575 32.9017C103.575 14.5583 115.593 8.73119e-06 134.889 8.73119e-06C155.151 -0.013226 165.461 15.0215 165.461 31.8958ZM121.429 32.5973C121.429 44.4424 126.591 51.6951 134.651 51.6951C142.856 51.6951 147.594 43.7939 147.594 32.4385C147.594 21.5992 142.737 13.3671 134.558 13.3671C126.591 13.3539 121.429 21.0036 121.429 32.5973Z" fill="#86D401"/>
<path d="M237.088 41.4778C236.876 34.331 236.717 25.9137 236.744 16.0538H236.492C234.547 24.4447 231.886 33.8413 229.848 40.7499L223.615 62.7196H210.406L205.126 40.8161C203.511 34.0399 201.579 24.7094 200.096 16.0406H199.911C199.554 24.9211 199.236 34.3178 198.958 41.4646L198.005 64.0166H182.468L186.346 1.00586H209.056L213.212 17.9728C214.946 24.9873 216.812 33.3252 218.122 41.0675H218.453C220.2 33.3781 222.304 24.4711 224.157 17.8405L228.882 1.01909H251.09L254.24 64.0299H237.842L237.088 41.4778Z" fill="#86D401"/>
<path d="M8.3777 85.2428H4.0764V87.903H8.88062V90.7882H0.608887V77.249H8.62916V80.1342H4.08963V82.4238H8.39094V85.2428H8.3777Z" fill="#86D401"/>
<path d="M22.2876 90.4968C21.8244 90.7218 20.6994 90.9732 19.2833 90.9732C14.5849 90.9732 12.5732 87.8233 12.5732 84.2367C12.5732 79.3928 15.8952 77.0635 19.5744 77.0635C20.9641 77.0635 22.0493 77.3282 22.5126 77.5929L21.8773 80.3722C21.3744 80.1604 20.6862 79.9487 19.773 79.9487C17.8539 79.9487 16.2393 81.1795 16.2393 84.025C16.2393 86.5925 17.6025 88.0351 19.8127 88.0351C20.5406 88.0351 21.3876 87.8895 21.8773 87.7175L22.2876 90.4968Z" fill="#86D401"/>
<path d="M37.309 83.8393C37.309 88.4317 34.9267 90.9993 31.1813 90.9993C27.2108 90.9993 25.2786 87.7038 25.2786 84.0642C25.2786 80.2923 27.5152 77.0498 31.393 77.0498C35.5488 77.0498 37.309 80.5306 37.309 83.8393ZM28.9314 84.0378C28.9314 86.7774 29.8843 88.1803 31.3269 88.1803C32.8092 88.1803 33.6562 86.5127 33.6562 83.9716C33.6562 81.6423 32.8224 79.8688 31.3136 79.8688C29.8843 79.8688 28.9314 81.3908 28.9314 84.0378Z" fill="#86D401"/>
<path d="M41.4644 77.249H44.9319V87.8765H49.5773V90.7882H41.4644V77.249Z" fill="#86D401"/>
<path d="M64.3607 83.8393C64.3607 88.4317 61.9785 90.9993 58.233 90.9993C54.2626 90.9993 52.3303 87.7038 52.3303 84.0642C52.3303 80.2923 54.5538 77.0498 58.4448 77.0498C62.5873 77.0498 64.3607 80.5306 64.3607 83.8393ZM55.9699 84.0378C55.9699 86.7774 56.9228 88.1803 58.3654 88.1803C59.8477 88.1803 60.6947 86.5127 60.6947 83.9716C60.6947 81.6423 59.8609 79.8688 58.3521 79.8688C56.9228 79.8688 55.9699 81.3908 55.9699 84.0378Z" fill="#86D401"/>
<path d="M79.0913 90.2446C78.2046 90.549 76.4708 90.9328 74.9224 90.9328C72.5533 90.9328 70.9122 90.324 69.8005 89.252C68.53 88.0608 67.8947 86.2212 67.9079 84.183C67.9476 79.4582 71.2563 77.1289 75.2532 77.1289C76.8679 77.1289 78.0855 77.4201 78.7075 77.7245L78.0458 80.5567C77.384 80.2655 76.5899 80.067 75.3326 80.067C73.2151 80.067 71.5475 81.2449 71.5475 84.1433C71.5475 86.7638 73.0298 88.127 74.8959 88.127C75.2797 88.127 75.6503 88.1005 75.7958 88.0344V85.5727H74.2341V82.8463H79.0913V90.2446Z" fill="#86D401"/>
<path d="M87.0451 77.249V90.8014H83.5776V77.249H87.0451Z" fill="#86D401"/>
<path d="M100.915 90.4968C100.452 90.7218 99.3268 90.9732 97.9107 90.9732C93.2124 90.9732 91.2007 87.8233 91.2007 84.2367C91.2007 79.3928 94.5226 77.0635 98.2019 77.0635C99.5915 77.0635 100.677 77.3282 101.14 77.5929L100.505 80.3722C100.002 80.1604 99.3136 79.9487 98.4004 79.9487C96.4814 79.9487 94.8667 81.1795 94.8667 84.025C94.8667 86.5925 96.2299 88.0351 98.4401 88.0351C99.168 88.0351 100.015 87.8895 100.505 87.7175L100.915 90.4968Z" fill="#86D401"/>
<path d="M108.526 87.7971L107.851 90.8014H104.317L107.93 77.249H112.443L116.016 90.8014H112.364L111.622 87.7971H108.526ZM111.212 85.2031L110.67 82.7282C110.498 81.9606 110.259 80.7562 110.074 79.9357H110.034C109.849 80.743 109.651 81.9871 109.478 82.7415L108.949 85.2031H111.212Z" fill="#86D401"/>
<path d="M119.96 77.249H123.428V87.8765H128.073V90.7882H119.96V77.249Z" fill="#86D401"/>
<path d="M148.653 86.1149C148.6 84.712 148.56 82.965 148.56 81.046H148.507C148.15 82.7401 147.634 84.6591 147.277 85.9429L146.046 90.5089H143.386L142.314 85.9561C142.022 84.6856 141.625 82.7798 141.347 81.046H141.308C141.241 82.8062 141.162 84.712 141.096 86.1149L140.884 90.7868H137.761L138.661 77.2476H143.055L143.941 81.0989C144.299 82.6606 144.683 84.3812 144.947 86.009H145.013C145.331 84.4076 145.741 82.5812 146.112 81.0725L147.078 77.2344H151.393L152.12 90.7868H148.825L148.653 86.1149Z" fill="#86D401"/>
<path d="M167.989 83.8393C167.989 88.4317 165.607 90.9993 161.861 90.9993C157.891 90.9993 155.959 87.7038 155.959 84.0642C155.959 80.2923 158.195 77.0498 162.073 77.0498C166.229 77.0498 167.989 80.5306 167.989 83.8393ZM159.612 84.0378C159.612 86.7774 160.564 88.1803 162.007 88.1803C163.489 88.1803 164.336 86.5127 164.336 83.9716C164.336 81.6423 163.503 79.8688 161.994 79.8688C160.564 79.8688 159.612 81.3908 159.612 84.0378Z" fill="#86D401"/>
<path d="M174.832 90.8014L170.914 77.249H174.739L175.983 82.662C176.34 84.1576 176.671 85.6531 176.949 87.3207H176.989C177.267 85.6928 177.584 84.1443 177.929 82.6885L179.186 77.249H182.918L178.895 90.8014H174.832Z" fill="#86D401"/>
<path d="M194.327 85.2428H190.025V87.903H194.83V90.7882H186.558V77.249H194.578V80.1342H190.039V82.4238H194.34V85.2428H194.327Z" fill="#86D401"/>
<path d="M209.639 86.1149C209.586 84.712 209.546 82.965 209.546 81.046H209.493C209.136 82.7401 208.62 84.6591 208.262 85.9429L207.032 90.5089H204.371L203.299 85.9561C203.008 84.6856 202.611 82.7798 202.333 81.046H202.293C202.227 82.8062 202.148 84.712 202.082 86.1149L201.87 90.7868H198.747L199.66 77.2476H204.054L204.94 81.0989C205.298 82.6606 205.682 84.3812 205.946 86.009H206.012C206.33 84.4076 206.74 82.5812 207.111 81.0725L208.077 77.2344H212.392L213.12 90.7868H209.824L209.639 86.1149Z" fill="#86D401"/>
<path d="M225.322 85.2428H221.021V87.903H225.825V90.7882H217.553V77.249H225.574V80.1342H221.034V82.4238H225.336V85.2428H225.322Z" fill="#86D401"/>
<path d="M230.113 90.8014V77.249H233.965L236.042 81.6165C236.664 82.8209 237.406 84.5943 237.922 86.0237H237.975C237.816 84.4487 237.697 82.3312 237.697 80.1474V77.249H240.833V90.8014H237.3L235.143 86.2751C234.494 84.9517 233.687 83.1517 233.157 81.6959H233.091C233.171 83.3238 233.237 85.4281 233.237 87.7707V90.8014H230.113Z" fill="#86D401"/>
<path d="M247.861 80.2533H244.738V77.249H254.505V80.2533H251.329V90.8014H247.848V80.2533H247.861Z" fill="#86D401"/>
<path d="M8.3777 85.2428H4.0764V87.903H8.88062V90.7882H0.608887V77.249H8.62916V80.1342H4.08963V82.4238H8.39094V85.2428H8.3777Z" fill="#86D401"/>
<path d="M22.2876 90.4968C21.8244 90.7218 20.6994 90.9732 19.2833 90.9732C14.5849 90.9732 12.5732 87.8233 12.5732 84.2367C12.5732 79.3928 15.8952 77.0635 19.5744 77.0635C20.9641 77.0635 22.0493 77.3282 22.5126 77.5929L21.8773 80.3722C21.3744 80.1604 20.6862 79.9487 19.773 79.9487C17.8539 79.9487 16.2393 81.1795 16.2393 84.025C16.2393 86.5925 17.6025 88.0351 19.8127 88.0351C20.5406 88.0351 21.3876 87.8895 21.8773 87.7175L22.2876 90.4968Z" fill="#86D401"/>
<path d="M37.309 83.8393C37.309 88.4317 34.9267 90.9993 31.1813 90.9993C27.2108 90.9993 25.2786 87.7038 25.2786 84.0642C25.2786 80.2923 27.5152 77.0498 31.393 77.0498C35.5488 77.0498 37.309 80.5306 37.309 83.8393ZM28.9314 84.0378C28.9314 86.7774 29.8843 88.1803 31.3269 88.1803C32.8092 88.1803 33.6562 86.5127 33.6562 83.9716C33.6562 81.6423 32.8224 79.8688 31.3136 79.8688C29.8843 79.8688 28.9314 81.3908 28.9314 84.0378Z" fill="#86D401"/>
<path d="M41.4644 77.249H44.9319V87.8765H49.5773V90.7882H41.4644V77.249Z" fill="#86D401"/>
<path d="M64.3607 83.8393C64.3607 88.4317 61.9785 90.9993 58.233 90.9993C54.2626 90.9993 52.3303 87.7038 52.3303 84.0642C52.3303 80.2923 54.5538 77.0498 58.4448 77.0498C62.5873 77.0498 64.3607 80.5306 64.3607 83.8393ZM55.9699 84.0378C55.9699 86.7774 56.9228 88.1803 58.3654 88.1803C59.8477 88.1803 60.6947 86.5127 60.6947 83.9716C60.6947 81.6423 59.8609 79.8688 58.3521 79.8688C56.9228 79.8688 55.9699 81.3908 55.9699 84.0378Z" fill="#86D401"/>
<path d="M79.0913 90.2446C78.2046 90.549 76.4708 90.9328 74.9224 90.9328C72.5533 90.9328 70.9122 90.324 69.8005 89.252C68.53 88.0608 67.8947 86.2212 67.9079 84.183C67.9476 79.4582 71.2563 77.1289 75.2532 77.1289C76.8679 77.1289 78.0855 77.4201 78.7075 77.7245L78.0458 80.5567C77.384 80.2655 76.5899 80.067 75.3326 80.067C73.2151 80.067 71.5475 81.2449 71.5475 84.1433C71.5475 86.7638 73.0298 88.127 74.8959 88.127C75.2797 88.127 75.6503 88.1005 75.7958 88.0344V85.5727H74.2341V82.8463H79.0913V90.2446Z" fill="#86D401"/>
<path d="M87.0451 77.249V90.8014H83.5776V77.249H87.0451Z" fill="#86D401"/>
<path d="M100.915 90.4968C100.452 90.7218 99.3268 90.9732 97.9107 90.9732C93.2124 90.9732 91.2007 87.8233 91.2007 84.2367C91.2007 79.3928 94.5226 77.0635 98.2019 77.0635C99.5915 77.0635 100.677 77.3282 101.14 77.5929L100.505 80.3722C100.002 80.1604 99.3136 79.9487 98.4004 79.9487C96.4814 79.9487 94.8667 81.1795 94.8667 84.025C94.8667 86.5925 96.2299 88.0351 98.4401 88.0351C99.168 88.0351 100.015 87.8895 100.505 87.7175L100.915 90.4968Z" fill="#86D401"/>
<path d="M108.526 87.7971L107.851 90.8014H104.317L107.93 77.249H112.443L116.016 90.8014H112.364L111.622 87.7971H108.526ZM111.212 85.2031L110.67 82.7282C110.498 81.9606 110.259 80.7562 110.074 79.9357H110.034C109.849 80.743 109.651 81.9871 109.478 82.7415L108.949 85.2031H111.212Z" fill="#86D401"/>
<path d="M119.96 77.249H123.428V87.8765H128.073V90.7882H119.96V77.249Z" fill="#86D401"/>
<path d="M148.653 86.1149C148.6 84.712 148.56 82.965 148.56 81.046H148.507C148.15 82.7401 147.634 84.6591 147.277 85.9429L146.046 90.5089H143.386L142.314 85.9561C142.022 84.6856 141.625 82.7798 141.347 81.046H141.308C141.241 82.8062 141.162 84.712 141.096 86.1149L140.884 90.7868H137.761L138.661 77.2476H143.055L143.941 81.0989C144.299 82.6606 144.683 84.3812 144.947 86.009H145.013C145.331 84.4076 145.741 82.5812 146.112 81.0725L147.078 77.2344H151.393L152.12 90.7868H148.825L148.653 86.1149Z" fill="#86D401"/>
<path d="M167.989 83.8393C167.989 88.4317 165.607 90.9993 161.861 90.9993C157.891 90.9993 155.959 87.7038 155.959 84.0642C155.959 80.2923 158.195 77.0498 162.073 77.0498C166.229 77.0498 167.989 80.5306 167.989 83.8393ZM159.612 84.0378C159.612 86.7774 160.564 88.1803 162.007 88.1803C163.489 88.1803 164.336 86.5127 164.336 83.9716C164.336 81.6423 163.503 79.8688 161.994 79.8688C160.564 79.8688 159.612 81.3908 159.612 84.0378Z" fill="#86D401"/>
<path d="M174.832 90.8014L170.914 77.249H174.739L175.983 82.662C176.34 84.1576 176.671 85.6531 176.949 87.3207H176.989C177.267 85.6928 177.584 84.1443 177.929 82.6885L179.186 77.249H182.918L178.895 90.8014H174.832Z" fill="#86D401"/>
<path d="M194.327 85.2428H190.025V87.903H194.83V90.7882H186.558V77.249H194.578V80.1342H190.039V82.4238H194.34V85.2428H194.327Z" fill="#86D401"/>
<path d="M209.639 86.1149C209.586 84.712 209.546 82.965 209.546 81.046H209.493C209.136 82.7401 208.62 84.6591 208.262 85.9429L207.032 90.5089H204.371L203.299 85.9561C203.008 84.6856 202.611 82.7798 202.333 81.046H202.293C202.227 82.8062 202.148 84.712 202.082 86.1149L201.87 90.7868H198.747L199.66 77.2476H204.054L204.94 81.0989C205.298 82.6606 205.682 84.3812 205.946 86.009H206.012C206.33 84.4076 206.74 82.5812 207.111 81.0725L208.077 77.2344H212.392L213.12 90.7868H209.824L209.639 86.1149Z" fill="#86D401"/>
<path d="M225.322 85.2428H221.021V87.903H225.825V90.7882H217.553V77.249H225.574V80.1342H221.034V82.4238H225.336V85.2428H225.322Z" fill="#86D401"/>
<path d="M230.113 90.8014V77.249H233.965L236.042 81.6165C236.664 82.8209 237.406 84.5943 237.922 86.0237H237.975C237.816 84.4487 237.697 82.3312 237.697 80.1474V77.249H240.833V90.8014H237.3L235.143 86.2751C234.494 84.9517 233.687 83.1517 233.157 81.6959H233.091C233.171 83.3238 233.237 85.4281 233.237 87.7707V90.8014H230.113Z" fill="#86D401"/>
<path d="M247.861 80.2533H244.738V77.249H254.505V80.2533H251.329V90.8014H247.848V80.2533H247.861Z" fill="#86D401"/>
</svg>
