<svg width="108" height="110" viewBox="0 0 108 110" fill="none" xmlns="http://www.w3.org/2000/svg">
<path d="M54.0031 0C37.6783 0 24.2344 13.2039 24.2344 29.7687C24.2344 46.0935 37.4382 59.5375 54.0031 59.5375C70.3279 59.5375 83.7718 46.3336 83.7718 29.7687C83.7718 13.2039 70.3279 0 54.0031 0ZM77.0499 13.2039C75.6095 14.1642 73.929 15.1244 72.2485 16.0847C71.2882 14.1642 70.0878 12.2436 68.6474 10.5631C69.8478 9.84289 71.0481 8.88261 72.0084 8.1624C74.169 9.36275 75.8495 11.2833 77.0499 13.2039ZM64.5662 3.36099C66.9669 4.32127 69.1276 5.52162 71.2882 7.20212C70.3279 8.1624 69.1275 8.88261 67.9272 9.60282C66.4868 7.92233 64.8063 6.4819 63.1258 5.04148C63.6059 4.32127 64.0861 3.84113 64.5662 3.36099ZM66.9669 10.083C65.2864 11.0432 63.6059 11.5234 61.9254 12.2436C61.2052 10.5631 60.485 8.88261 59.5247 7.44219C60.485 6.96204 61.4453 6.4819 62.1655 5.76169C63.846 6.96205 65.5265 8.40247 66.9669 10.083ZM63.3659 2.88085C62.8857 3.36099 62.4056 3.84113 62.1655 4.32127C60.485 3.36099 59.0446 2.40071 57.124 1.68049C59.2847 1.68049 61.4453 2.16063 63.3659 2.88085ZM61.2052 5.04148C60.485 5.52162 59.7648 6.00176 59.0446 6.24183C58.0843 4.80141 57.124 3.60106 56.1637 2.16063C57.8442 2.88085 59.5247 3.84113 61.2052 5.04148ZM54.4833 2.40071C55.6836 3.60106 56.6439 5.04148 57.6042 6.72197C56.6439 6.96204 55.6836 7.20212 54.4833 7.20212V2.40071ZM54.4833 8.40247C55.6836 8.40247 57.124 8.1624 58.3244 7.68226C59.2847 9.12268 60.0049 10.8032 60.7251 12.4837C58.8045 12.9638 56.6439 13.2039 54.4833 13.4439V8.40247ZM53.2829 2.40071V7.20212C52.3226 7.20212 51.3623 6.96204 50.162 6.72197C51.3623 5.28155 52.3226 3.84113 53.2829 2.40071ZM49.2017 6.24183C48.4815 6.00176 47.5212 5.52162 47.0411 5.04148C48.7216 4.0812 50.4021 3.12092 52.0825 2.40071C50.8822 3.60106 49.9219 4.80141 49.2017 6.24183ZM50.8822 1.44042C49.2017 2.16063 47.5212 3.12092 45.8407 4.0812C45.3606 3.60106 44.8804 3.12092 44.6404 2.64078C46.5609 2.16063 48.7216 1.68049 50.8822 1.44042ZM71.2882 52.3354C67.4471 50.1747 67.207 47.0538 67.4471 46.0935C67.6871 44.8932 68.4073 45.3733 68.8875 45.3733C71.5283 45.3733 74.169 44.6531 77.53 41.0521C81.3711 37.2109 82.5715 28.5684 76.5697 23.0468C70.3279 17.045 63.6059 18.0053 59.2847 23.5269C58.3244 24.7273 56.1637 25.4475 54.4833 25.4475C51.6024 25.4475 53.523 27.6081 53.523 28.0882C53.523 28.5684 53.0428 28.8085 52.8027 28.8085C51.8425 28.5684 52.3226 30.0088 52.3226 30.2489C52.3226 30.489 51.8425 30.9691 51.8425 30.9691C50.6421 30.9691 50.8822 31.9294 51.1223 32.4095C51.1223 32.6496 51.1223 33.1297 50.6421 33.3698C50.162 33.6099 49.9219 34.5702 49.9219 35.2904C49.9219 36.4907 51.1223 37.451 53.0428 38.8914C54.9634 40.3318 55.2035 41.7723 55.2035 42.7325C55.2035 43.6928 55.4435 45.3733 55.6836 46.3336C56.1637 47.534 56.1637 49.9347 53.523 49.9347C50.162 50.1747 44.4003 52.5754 43.9201 52.8155C41.9996 53.5357 39.5989 53.7758 37.6783 53.2957C36.718 52.5754 35.7577 51.8552 34.7975 50.895C34.3173 49.6946 35.0375 48.2542 35.7577 47.2939C36.9581 48.4942 38.3985 48.2542 39.3588 48.2542C40.3191 48.2542 44.6404 47.534 45.3606 47.2939C46.0808 47.0538 46.3208 47.0538 46.5609 47.2939C48.2414 48.0141 50.6421 48.0141 51.6024 44.8932C52.5627 41.5322 50.4021 42.4925 49.9219 42.7325C49.6818 42.9726 49.2017 42.7326 49.4418 42.4925C49.9219 41.7723 49.2017 41.7723 48.9616 41.7723C48.0013 41.7723 46.801 42.7326 46.5609 42.9726C46.0808 43.2127 45.8407 43.2127 45.6006 43.2127C44.4003 42.4925 40.7992 43.4528 39.5989 41.5322C39.5989 41.0521 38.6386 33.1297 38.1585 31.6893C38.1585 31.4492 37.9184 30.9691 38.3985 30.489C39.3588 29.0485 41.7595 30.489 43.1999 30.489C44.8804 30.489 45.1205 29.7687 45.6006 29.2886C46.0808 28.8085 46.3208 29.0485 46.5609 28.8085C46.801 28.5684 46.5609 28.3283 46.5609 28.0882C46.5609 27.8482 46.801 28.0883 47.0411 27.8482C47.2811 27.6081 47.0411 27.128 47.0411 26.8879C47.5212 26.1677 48.4815 26.6478 48.0013 25.2074C47.7613 24.2471 48.2414 23.2868 48.7216 22.8067C49.4418 21.8464 52.5627 17.5251 47.2811 12.9638C42.2397 8.64254 36.9581 9.12268 33.5971 12.7237C30.2361 16.3248 31.9166 21.6063 32.1567 23.0468C32.3968 24.4872 31.4365 25.6875 30.2361 26.1677C29.2759 26.6478 27.1152 28.0882 25.6748 29.2886C25.9149 17.7652 32.8769 7.68226 43.44 3.60106C43.9202 4.0812 44.4003 4.80141 44.8804 5.28155C43.6801 6.24183 41.0393 8.40247 41.0393 8.40247C41.0393 8.40247 41.2794 8.40247 41.7595 8.64254C41.9996 8.64254 42.4797 8.88261 42.4797 8.88261C42.4797 8.88261 44.6404 6.96204 45.8407 6.24183C46.5609 6.96204 47.5212 7.44219 48.4815 7.92233C48.0014 8.88261 46.5609 11.2833 46.5609 11.2833C46.5609 11.2833 46.801 11.5234 47.0411 11.5234C47.2811 11.7635 47.5212 11.7635 47.5212 11.7635C47.5212 11.7635 48.9616 9.12268 49.4418 8.1624C50.6421 8.64254 51.8425 8.88261 53.0428 8.88261V13.684C52.3226 13.684 50.6421 13.684 49.9219 13.4439H49.4418L49.6818 13.9241C49.9219 14.1642 49.9219 14.4042 50.162 14.6443C50.6421 14.6443 52.3226 14.6443 53.0428 14.6443V23.5269H54.2432V21.3663C56.1637 21.3663 57.6042 21.1262 59.2847 20.8861L60.9651 19.4457H60.0049C58.0843 19.6858 56.4038 19.9259 54.9634 19.9259C54.9634 19.9259 54.4833 19.9259 54.2432 19.9259V14.4042C56.4038 14.4042 58.8045 14.1642 60.9651 13.4439C61.4453 14.8844 62.6457 18.4854 62.6457 18.4854L63.846 18.0053C63.846 18.0053 62.6456 14.4042 62.1655 12.9638C64.0861 12.4837 65.7666 11.5234 67.4471 10.8032C68.8875 12.4837 70.0878 14.4042 71.0481 16.3248C70.0878 16.8049 68.6474 17.2851 68.6474 17.2851C69.8478 17.5251 70.808 17.7652 70.808 17.7652C70.808 17.7652 71.2882 17.5251 71.5283 17.5251C71.5283 17.7652 71.7683 18.2454 71.7683 18.2454L73.4488 18.9656L73.2087 18.4854C73.2087 18.4854 72.7286 17.2851 72.4885 17.045C74.169 16.3248 75.8495 15.3645 77.53 14.1642C80.6509 18.7255 82.0914 24.2471 82.0914 29.7687C82.5715 38.8914 78.0102 47.0538 71.2882 52.3354Z" fill="white"/>
<path d="M21.5903 7.9222L21.1102 8.40234C19.4297 9.84276 15.3485 13.924 16.0687 18.4853V18.7254L16.3088 19.6857L16.7889 19.2055C19.1896 17.0449 21.1102 13.2038 21.8304 8.88248L22.0705 7.68213L21.5903 7.9222Z" fill="white"/>
<path d="M13.4348 15.6043L13.1947 16.0845C12.9546 16.8047 12.4745 18.4852 12.2344 20.4057C11.7543 23.2866 11.9943 27.6079 14.3951 30.7288L14.6351 31.2089L14.8752 31.689L15.3553 29.7685C15.8355 26.4075 15.1153 19.4455 13.9149 16.3245L13.4348 15.3643V15.6043Z" fill="white"/>
<path d="M10.5503 27.608V28.0881C10.3102 30.969 10.5503 38.4111 16.5521 42.4923L17.2723 42.9725V42.0122C17.2723 39.1314 13.9113 30.7289 11.5106 27.848L10.7904 26.8878L10.5503 27.608Z" fill="white"/>
<path d="M11.5078 40.8121V41.2923C12.4681 45.6135 16.3092 52.3355 22.5511 54.4961L23.5113 54.7362L23.2713 53.7759C22.0709 50.655 16.0692 43.2128 12.228 40.8121L11.5078 40.332V40.8121Z" fill="white"/>
<path d="M24.2313 14.404L23.511 14.6441C18.9497 17.5249 16.7891 20.8859 16.7891 25.2072V26.1675L17.5093 25.6873C19.91 23.5267 23.271 18.2451 23.9912 15.3643L24.2313 14.1639V14.404Z" fill="white"/>
<path d="M21.3569 23.5268L21.1169 24.007C19.9165 25.2073 16.0754 29.2885 16.3155 34.33C16.3155 35.0502 16.5555 36.0105 16.7956 36.7307L17.0357 37.4509L17.5158 36.7307C19.4364 34.0899 21.8371 27.3679 21.597 24.247V23.2867L21.3569 23.5268Z" fill="white"/>
<path d="M21.5897 32.4093L21.3496 32.8894C19.429 35.7702 18.4688 38.6511 18.4688 41.5319C18.4688 43.4525 19.189 45.3731 20.3893 47.2936L20.8695 48.0138L21.1095 47.2936C21.8297 45.6131 22.5499 40.5717 22.5499 36.4905C22.5499 35.05 22.3099 33.8497 22.0698 33.1295L21.8297 32.1692L21.5897 32.4093Z" fill="white"/>
<path d="M23.7507 41.7721L23.5106 42.2523C23.0305 44.1728 22.5503 45.8533 22.7904 47.7739C22.7904 51.615 24.711 54.7359 28.072 56.8966L28.5521 57.1366L28.7922 56.4164V55.6962C28.7922 52.5753 26.3915 44.4129 24.4709 42.0122L23.9908 41.292L23.7507 41.7721Z" fill="white"/>
<path d="M17.2713 54.2559L17.5114 54.7361C19.9121 58.8173 24.2334 64.3389 32.1557 62.8985H32.8759L32.3957 62.4183C30.9553 60.2577 21.3525 54.7361 17.9915 54.2559L17.0312 54.0159L17.2713 54.2559Z" fill="white"/>
<path d="M29.0363 64.8191L27.8359 65.0592L29.0363 65.5393C34.0778 67.7 40.3196 68.1801 44.1607 66.9797C45.6011 66.4996 46.3214 65.7794 47.2816 64.8191C53.7635 65.5393 59.7653 70.8209 63.3664 75.1421L63.6064 75.3822H63.8465C64.3266 75.1421 64.8068 74.662 65.0469 74.4219L65.2869 74.1819L65.0469 73.9418C61.4458 69.1404 55.6841 66.2595 55.444 66.0195C50.1625 63.6188 41.0398 61.6982 29.0363 64.8191Z" fill="white"/>
<path d="M29.2791 51.3752V51.8553C29.9993 56.6568 31.9199 62.8986 40.0823 62.1784H40.5624L40.3224 61.6982C39.8422 59.5376 32.4 53.2958 29.7593 51.6153L29.0391 51.1351L29.2791 51.3752Z" fill="white"/>
<path d="M85.9297 7.44244L86.1698 8.6428C86.89 12.9641 88.8105 16.8052 91.2112 18.9658L91.6914 19.446L91.9314 18.4857V18.2456C92.6517 13.6843 88.5705 9.60308 86.89 8.16266L86.4098 7.68251L85.9297 7.44244Z" fill="white"/>
<path d="M94.3322 15.1246L93.852 16.0849C92.6517 19.2058 92.1715 26.1678 92.4116 29.5288L92.8917 31.4494L93.1318 31.2093L93.3719 30.7292C96.0127 27.6082 96.0126 23.527 95.5325 20.4061C95.2924 18.2455 94.8123 16.8051 94.5722 16.0849L94.3322 15.6047V15.1246Z" fill="white"/>
<path d="M97.4585 27.1281L96.7382 28.0883C94.3375 31.2092 90.9766 39.3716 90.9766 42.2525V43.2128L91.6967 42.7326C97.6985 38.8915 97.9386 31.4493 97.6985 28.3284V27.8483L97.4585 27.1281Z" fill="white"/>
<path d="M96.4936 40.332L95.5333 40.8121C91.6922 43.2128 85.6904 50.655 84.4901 53.7759L84.25 54.7362L85.2103 54.4961C91.4521 52.5756 95.5333 45.6135 96.2535 41.2923V40.8121L96.4936 40.332Z" fill="white"/>
<path d="M83.7734 13.9242L84.0135 15.1245C84.9738 18.2455 87.8546 23.527 90.4954 25.6876L91.2156 26.1678V25.2075C91.4557 20.8862 89.2951 17.5253 84.7337 14.6444L84.2536 14.4043L83.7734 13.9242Z" fill="white"/>
<path d="M86.4137 23.2867V24.247C86.1737 27.3679 88.8144 34.33 90.4949 36.7307L90.9751 37.4509L91.2151 36.7307C91.4552 35.7704 91.6953 35.0502 91.6953 34.33C91.9353 29.2885 88.0942 25.2073 86.8939 24.007L86.6538 23.7669L86.4137 23.2867Z" fill="white"/>
<path d="M86.1733 31.9295L85.9333 32.8898C85.6932 33.61 85.4531 34.8104 85.4531 36.2508C85.4531 40.332 85.9333 45.3735 86.8935 47.0539L87.1336 47.7742L87.6137 47.0539C88.8141 45.3735 89.5343 43.4529 89.5343 41.2923C89.5343 38.6515 88.574 35.5306 86.6535 32.6497L86.4134 32.1696L86.1733 31.9295Z" fill="white"/>
<path d="M84.0123 41.292L83.5322 42.0122C81.6116 44.4129 79.2109 52.5753 79.2109 55.6962C79.2109 55.6962 79.2109 56.1764 79.2109 56.4164L79.451 57.1366L79.9312 56.8966C83.2921 54.7359 84.9726 51.615 85.2127 47.7739C85.2127 46.0934 84.9726 44.1728 84.4925 42.2523L84.2524 41.7721L84.0123 41.292Z" fill="white"/>
<path d="M90.9775 53.7756L90.0172 54.0156C86.6562 54.4958 77.0534 60.0174 75.6129 62.178L75.1328 62.6582H75.853C83.7754 64.0986 88.0966 58.577 90.4973 54.4958L90.7374 54.0156L90.9775 53.7756Z" fill="white"/>
<path d="M52.8038 66.0195C52.5638 66.0195 46.8021 69.1404 43.201 73.9418L42.9609 74.1819L43.201 74.4219C43.4411 74.662 44.1613 75.1421 44.4014 75.3822H44.6414L44.8815 75.1421C48.4826 70.8209 54.4843 65.2993 60.9662 64.8191C61.9265 65.7794 62.8868 66.4996 64.0871 66.9797C67.6882 68.1801 74.1701 67.7 79.2116 65.5393L80.4119 65.0592L79.2116 64.8191C66.968 61.6982 57.8453 63.6188 52.8038 66.0195Z" fill="white"/>
<path d="M78.7265 50.8948L78.0063 51.375C75.3655 53.0555 68.1634 59.2973 67.4432 61.4579L67.2031 61.9381H67.6833C75.6056 62.6583 77.5262 56.4165 78.4864 51.615V51.1349L78.7265 50.8948Z" fill="white"/>
<path d="M45.7188 77.7981H50.6548V82.2641H45.7188V77.7981ZM46.1889 87.4352H50.3022V109.295H46.1889V87.4352Z" fill="white"/>
<path d="M15.0423 87.4351H19.1556V109.295H15.1598V106.122H15.0423C13.3969 108.825 10.5763 110 7.52062 110C2.93712 110 0.351562 106.474 0.351562 102.126V87.4351H4.46496V100.363C4.46496 104.124 5.28763 106.944 9.2835 106.944C10.9289 106.944 13.2794 106.122 14.1021 103.771C14.9247 101.773 14.9247 99.1877 14.9247 98.6V87.4351H15.0423Z" fill="white"/>
<path d="M27.379 90.6085C28.9069 87.9054 31.845 86.7302 34.078 86.7302C35.6058 86.7302 42.3048 87.0827 42.3048 94.1343V109.178H38.1914V95.4271C38.1914 91.7838 36.6635 89.9034 33.1378 89.9034C33.1378 89.9034 30.9048 89.7858 29.1419 91.5487C28.5543 92.1363 27.379 93.0765 27.379 97.425V109.295H23.2656V87.4353H27.379V90.6085Z" fill="white"/>
<path d="M67.5725 94.3693C67.3374 91.6662 66.0447 89.7858 63.1065 89.7858C59.2282 89.7858 57.7003 93.1941 57.7003 98.2477C57.7003 103.301 59.2282 106.71 63.1065 106.71C65.8096 106.71 67.455 104.947 67.69 101.773H71.8034C71.4508 106.71 67.8075 109.648 62.989 109.648C56.055 109.648 53.2344 104.712 53.2344 98.3652C53.2344 92.0188 56.4076 86.7302 63.3416 86.7302C67.9251 86.7302 71.3333 89.6683 71.5684 94.3693H67.5725Z" fill="white"/>
<path d="M77.9188 99.0701C77.5662 102.831 79.2115 106.827 83.3249 106.827C86.4981 106.827 88.1435 105.534 88.6136 102.361H92.962C92.2569 107.297 88.4961 109.765 83.3249 109.765C76.3909 109.765 73.5703 104.829 73.5703 98.4825C73.5703 92.1361 76.7435 86.8475 83.6775 86.8475C90.1414 86.965 93.1971 91.0784 93.1971 97.0722V99.0701H77.9188ZM88.9662 96.2495C89.0837 92.6062 87.4383 89.7856 83.4425 89.7856C80.0342 89.7856 78.0363 92.7237 78.0363 96.2495H88.9662Z" fill="white"/>
<path d="M97.9014 109.06V90.2559H94.1406V87.4353H97.9014V82.7343C98.019 78.0333 101.662 76.7405 104.718 76.7405C105.658 76.7405 106.716 76.9755 107.656 77.2106V80.6188C106.951 80.6188 106.246 80.5013 105.541 80.5013C103.19 80.5013 101.897 81.0889 102.015 83.4394V87.4353H107.068V90.2559H102.015V109.06H97.9014Z" fill="white"/>
</svg>
