<svg width="60" height="71" viewBox="0 0 60 71" fill="none" xmlns="http://www.w3.org/2000/svg">
<path d="M44.5793 0.0367228C45.5524 0.238686 46.5622 0.367201 47.5169 0.660966C54.2735 2.79076 58.276 7.47263 59.6714 14.321C60.5711 18.7642 59.598 22.9136 57.0643 26.6775C56.9541 26.8244 56.8623 26.9896 56.7521 27.1181C56.3115 27.6689 55.7423 27.7607 55.2466 27.3935C54.8059 27.0447 54.7508 26.4755 55.0813 25.9247C55.6689 24.8965 56.3666 23.9051 56.8072 22.8218C60.4242 13.9354 54.6958 3.80057 45.2402 2.27667C35.4358 0.679324 26.7514 9.03325 27.9081 18.9294C28.716 25.8513 34.2975 31.3226 41.2744 32.0938C45.0566 32.516 48.49 31.598 51.5929 29.4315C51.905 29.2112 52.4007 29.0643 52.7679 29.1194C53.025 29.1561 53.4106 29.6151 53.4106 29.8722C53.4106 30.2394 53.1902 30.7351 52.8965 30.9554C51.0053 32.3875 48.8939 33.3423 46.5805 33.838C46.2133 33.9114 46.0297 34.04 46.0297 34.4439C46.0481 41.0169 46.0481 47.5898 46.0481 54.1628C46.0481 54.2363 46.0664 54.2913 46.0848 54.4015C47.8474 54.8789 48.4349 56.1274 48.3798 57.8716C48.3247 59.524 48.3615 61.1764 48.3615 62.8105C48.3615 64.6465 47.7923 65.4544 46.0297 66.0786C46.0297 67.0334 46.0297 68.0065 46.0297 68.9979C46.0297 70.0628 45.6809 70.3933 44.6343 70.3933C30.6438 70.3933 16.6533 70.3933 2.64438 70.3933C1.01032 70.3933 0.0188551 69.4202 0.0188551 67.8045C0.0188551 65.4544 -0.183103 63.0492 0.73491 60.8092C1.32244 59.4139 2.11192 58.0919 2.88305 56.77C3.26862 56.1274 3.9296 56.0723 4.40697 56.4579C4.88433 56.8251 4.95777 57.4126 4.51712 57.9818C2.66274 60.3502 1.9467 63.0492 2.07522 66.0052C2.09358 66.5927 2.09358 67.1986 2.07522 67.7861C2.07522 68.1534 2.22208 68.337 2.60765 68.3186C2.73617 68.3186 2.88307 68.3186 3.01159 68.3186C15.0192 68.3186 27.0085 68.3186 39.0161 68.3186C39.2548 68.3186 39.5118 68.3186 39.8239 68.3186C39.8239 67.4373 39.8239 66.6111 39.8239 65.8032C39.8239 65.6931 39.7321 65.5462 39.6403 65.4727C38.759 64.7751 38.5387 63.8203 38.6122 62.7738C38.6305 62.48 38.6122 62.1863 38.6122 61.8558C38.4286 61.8007 38.2817 61.764 38.1348 61.7273C36.7027 61.3784 35.7663 60.2401 35.7296 58.7712C35.7112 57.7798 35.7112 56.8067 35.7296 55.8152C35.748 55.4113 35.6194 55.1543 35.2522 55.0074C34.0221 54.5484 32.792 54.0894 31.5067 53.5937C31.1395 54.6218 30.9008 55.5031 30.5153 56.311C30.093 57.2106 29.634 58.1286 29.0464 58.9365C27.853 60.5522 26.2006 61.0479 24.2912 60.3686C23.3548 60.0381 22.4918 59.4873 21.6105 59.0466C20.9312 59.4322 20.1968 59.9279 19.4073 60.2584C17.2959 61.1397 15.3497 60.644 14.1196 58.7162C13.275 57.4126 12.7793 55.8887 12.1183 54.4566C12.0265 54.2546 11.9898 54.0343 11.9163 53.7773C10.576 53.9241 9.34588 54.3464 8.18918 54.9523C7.69345 55.2094 7.21608 55.2461 6.81216 54.8238C6.29807 54.3097 6.46332 53.5569 7.16101 53.1714C8.62983 52.3635 10.1905 51.9045 11.8429 51.6842C12.1917 51.6291 12.5589 51.5006 12.8343 51.317C13.9727 50.5826 15.0743 49.8114 16.2677 49.0036C11.9347 46.8738 9.0154 43.624 7.71182 38.9972C7.19773 39.089 6.73872 39.1992 6.26135 39.2359C4.93941 39.3094 3.9296 38.7035 3.12175 37.6936C1.30408 35.417 0.955229 31.0289 2.40569 28.4951C2.62601 28.1096 2.93814 27.7607 3.21355 27.3568C2.07521 25.3923 2.2221 23.5012 3.72764 21.6835C3.6542 21.5733 3.58075 21.4448 3.48895 21.3163C1.94669 18.8744 2.95651 15.7715 5.65547 14.7249C5.94924 14.6148 6.15119 14.5413 6.16955 14.1374C6.33479 11.1814 8.50131 9.45554 11.5491 9.85947C12.1183 8.59261 13.0363 7.67459 14.4133 7.23394C15.7903 6.81166 17.0756 7.03198 18.3241 7.8582C19.2237 6.92182 20.307 6.42609 21.6105 6.40773C22.9141 6.40773 24.0157 6.86675 24.9521 7.83984C26.0905 7.14215 27.2839 6.83002 28.6058 7.12379C28.7711 7.16051 29.0648 6.90346 29.2117 6.71986C31.6903 3.56189 34.8483 1.46882 38.7407 0.49573C39.6036 0.275406 40.4849 0.165242 41.3662 0C42.4678 0.0367206 43.5327 0.0367228 44.5793 0.0367228ZM28.1101 25.9247C27.7429 25.1536 27.2288 24.2723 26.935 23.3359C26.5862 22.2159 26.0904 21.2428 25.0806 20.6002C24.897 20.4901 24.5849 20.4166 24.4013 20.4901C22.602 21.2796 20.8027 21.2979 19.0217 20.4717C18.6913 20.3248 18.5077 20.3432 18.269 20.6186C17.4244 21.5182 16.3779 22.0323 15.1477 22.1792C14.9274 22.1976 14.6336 22.3812 14.5418 22.5831C13.9176 23.7398 12.9996 24.4742 11.7694 24.9149C11.5858 24.9883 11.4206 25.2454 11.3288 25.4657C11.035 26.1267 10.8331 26.8244 10.4842 27.467C10.3006 27.7975 10.2455 28.0361 10.3741 28.4033C10.7045 29.3581 10.7229 30.3863 10.0987 31.1574C9.45604 31.9652 9.4744 32.8282 9.4744 33.7278C9.4744 34.3704 9.4744 35.013 9.4744 35.6557C9.45604 39.1992 10.8147 42.1736 13.3668 44.5604C15.8454 46.8921 18.7831 48.3059 22.2348 48.0672C27.5226 47.7184 32.0025 43.9178 33.4713 38.8136C34.1139 36.5553 33.8568 34.2786 33.8936 31.9836C33.8936 31.8551 33.7834 31.6898 33.6733 31.598C32.2228 30.3863 30.7723 29.1928 29.3402 27.9994C29.0465 28.0545 28.6425 28.1463 28.2202 28.2197C27.3573 28.3666 26.476 28.4768 25.6131 28.6788C24.9154 28.8624 24.3829 28.7522 24.1443 28.2197C23.8872 27.6506 24.1075 27.0263 24.8052 26.7876C25.8885 26.4388 26.9901 26.2185 28.1101 25.9247ZM27.7245 9.14342C26.9167 9.1067 26.3475 9.41882 25.8518 9.89619C25.0623 10.6673 24.3279 10.5755 23.7036 9.6575C22.6387 8.07852 20.6925 8.09688 19.6276 9.69422C19.0401 10.5755 18.2873 10.649 17.5162 9.91455C16.0107 8.48245 13.9543 9.06997 13.4402 11.0712C13.1648 12.1361 12.5956 12.4666 11.5675 12.0627C10.6495 11.6955 9.80489 11.8057 9.07048 12.4483C8.31771 13.0909 8.13411 13.9355 8.33607 14.8718C8.55639 15.8449 8.15246 16.4141 7.16101 16.5243C6.09611 16.6344 5.34335 17.1301 5.01286 18.1583C4.66402 19.1865 4.97614 20.0311 5.76563 20.7471C6.55512 21.4632 6.50005 22.2159 5.65547 22.8585C4.22337 23.9418 4.20499 25.686 5.6371 26.806C6.35315 27.3568 6.44495 27.8709 5.98595 28.642C5.56366 29.3764 5.63711 30.0925 6.20628 30.5515C6.70201 30.9554 7.47314 30.9554 7.96886 30.5331C8.53803 30.0558 8.61147 29.3214 8.17082 28.6237C7.6751 27.8158 7.71181 27.3017 8.39114 26.6775C9.01539 26.1083 9.2908 25.4473 9.25408 24.6028C9.199 23.5379 9.62129 23.0789 10.6495 22.9687C11.7144 22.8585 12.412 22.2894 12.7792 21.2979C13.1281 20.3065 13.4219 20.0861 14.4868 20.1045C15.5884 20.1229 16.433 19.6822 17.0388 18.7826C17.7549 17.7177 18.269 17.6442 19.3706 18.3236C20.8211 19.2232 22.3082 19.2599 23.7954 18.397C24.4013 18.0481 24.9521 17.6442 25.7232 18.0849C25.6498 14.9085 26.2741 11.9893 27.7245 9.14342ZM35.6011 38.9789C34.2791 43.6057 31.3782 46.8738 27.0819 49.0219C28.3671 49.9032 29.5789 50.7294 30.8091 51.574C30.8825 51.6291 30.9743 51.6658 31.0661 51.6842C32.6818 52.0514 34.2975 52.4186 35.9866 52.8042C36.7027 51.2986 38.0614 50.7294 39.8239 51.0416C39.8239 46.7453 39.8239 42.5408 39.8239 38.2261C38.502 39.3461 37.1066 39.4746 35.6011 38.9789ZM40.7052 60.1666C40.7052 61.1764 40.7236 62.1863 40.7052 63.1777C40.7052 63.7102 40.9439 64.0039 41.4764 64.0039C42.8167 64.0223 44.1753 64.0223 45.5156 64.0039C46.0114 64.0039 46.3051 63.7469 46.3051 63.2512C46.3235 61.2315 46.3235 59.2303 46.3051 57.2106C46.3051 56.7149 46.0297 56.4579 45.534 56.4579C44.1937 56.4579 42.835 56.4579 41.4947 56.4579C40.9623 56.4579 40.7052 56.7333 40.7052 57.2657C40.7236 58.2388 40.7052 59.2119 40.7052 60.1666ZM41.9904 34.2786C41.9904 40.9985 41.9904 47.6816 41.9904 54.3648C42.6698 54.3648 43.294 54.3648 43.955 54.3648C43.955 47.6449 43.955 40.9801 43.955 34.2786C43.294 34.2786 42.6698 34.2786 41.9904 34.2786ZM18.6178 49.7747C18.9483 52.3268 19.8112 54.4749 21.7023 56.2008C23.5751 54.4382 24.4748 52.3084 24.7502 49.7931C22.6938 50.2521 20.7109 50.2888 18.6178 49.7747ZM20.1234 57.5595C18.269 55.7969 17.2592 53.6855 16.7267 51.2252C15.8087 51.8494 14.9641 52.4002 14.1379 53.0061C14.0461 53.0796 13.991 53.3366 14.0278 53.4651C14.5235 54.7136 14.9274 55.9988 15.57 57.1739C16.433 58.7529 17.5346 58.9916 19.1319 58.1654C19.444 58.0001 19.7562 57.7982 20.1234 57.5595ZM26.6413 51.2252C26.1088 53.7405 25.0623 55.8336 23.263 57.5595C23.5751 57.7614 23.8505 57.945 24.1259 58.1103C25.7967 59.0283 26.9534 58.7712 27.853 57.1188C28.5324 55.8703 29.0097 54.5117 29.5789 53.2081C28.5324 52.492 27.6327 51.8861 26.6413 51.2252ZM3.81945 30.6617C3.48896 32.1121 3.54404 33.4157 3.9296 34.6642C4.14993 35.3435 4.4804 36.0229 4.90268 36.592C5.41677 37.2714 6.31643 37.3999 7.06921 36.996C7.21609 36.9042 7.41806 36.7206 7.41806 36.5553C7.45478 35.3803 7.43641 34.2052 7.43641 32.9567C5.72891 32.9751 4.59058 32.2223 3.81945 30.6617ZM39.7689 34.0583C38.3918 33.636 37.2168 33.2688 35.9683 32.8833C35.9683 33.9482 35.9866 34.9396 35.9683 35.9311C35.9499 36.8674 36.2988 37.3081 37.2352 37.1428C37.7676 37.051 38.3735 36.7022 38.6856 36.2799C39.1446 35.674 39.4016 34.8662 39.7689 34.0583ZM38.3918 59.7443C38.4836 59.7076 38.5571 59.6525 38.6489 59.6158C38.6489 58.7712 38.5571 57.9083 38.6856 57.0821C38.7774 56.4395 39.0528 55.7418 39.4567 55.2644C39.8423 54.8054 39.9341 54.4199 39.8423 53.9058C39.7321 53.3366 39.3649 53.0245 38.7774 53.0428C38.1899 53.0612 37.8227 53.41 37.8227 53.9976C37.8043 55.5949 37.7859 57.1923 37.841 58.7896C37.8594 59.1201 38.2082 59.4322 38.3918 59.7443ZM43.955 68.3186C43.955 67.5475 43.955 66.8498 43.955 66.1337C43.2757 66.1337 42.6514 66.1337 41.9904 66.1337C41.9904 66.8865 41.9904 67.6025 41.9904 68.3186C42.6698 68.3186 43.294 68.3186 43.955 68.3186Z" fill="#6DAFFF"/>
</svg>
